<svg xmlns="http://www.w3.org/2000/svg" xmlns:xlink="http://www.w3.org/1999/xlink" viewBox="0 0 315 136"><defs><linearGradient id="c" x1="4.491%" x2="97.474%" y1="47.599%" y2="50%"><stop offset="0" stop-color="#2ef0f4"/><stop offset="1" stop-color="#4eb4ff"/></linearGradient><filter id="a" height="176%" width="128.2%" x="-14.1%" y="-38%"><feOffset in="SourceAlpha" result="shadowOffsetOuter1"/><feGaussianBlur in="shadowOffsetOuter1" result="shadowBlurOuter1" stdDeviation="12.5"/><feColorMatrix in="shadowBlurOuter1" values="0 0 0 0 0 0 0 0 0 0.701960784 0 0 0 0 0.784313725 0 0 0 0.640898164 0"/></filter><path id="b" d="M60.99 19.26v.9c-3.36 1.14-5.04 4.68-7.98 10.86l-7.32 15.3.002 8.474c.03 5.819.386 6.972 2.998 7.426v.9l-.62-.023a241.55 241.55 0 00-6.4-.097l-.925.003c-2.166.013-4.947.065-6.095.117v-.9l.286-.055c2.49-.522 2.714-1.925 2.714-8.405v-5.22L26.446 26.631c-2.35-4.552-3.561-6.414-4.936-6.471v-.9l1 .034c1.243.034 3.112.063 4.732.077l2.082.009 2.01-.013 1.955-.026c1.337-.022 2.515-.052 3.161-.081v.9c-1.86.36-2.76.9-2.76 2.28 0 1.033.44 2.395 1.528 4.717L43.65 45l7.2-15.3c1.08-2.28 2.04-4.68 2.04-6.36 0-1.5-.66-2.76-2.76-3.18v-.9l1.245.045c.865.026 1.91.05 2.976.062l.767.008 1.56.004.805-.007a95.276 95.276 0 003.507-.112zm13.2 10.98l10.8 27c1.2 2.94 2.64 4.62 4.8 5.22v.6L82.886 63l-3.009.015c-2.307.018-5.16.045-5.807.045v-.6c2.28-.36 3.24-1.08 3.24-2.64 0-1.02-.42-2.4-1.14-4.32l-1.02-2.64h-6.09c-1.453.003-2.486.014-3.45.06l-.42.96c-1.02 2.46-1.62 4.32-1.62 5.64 0 1.68.9 2.58 3 2.94v.6l-5.165-.059h-.67c-.543 0-1.247.009-1.964.018l-3.181.041v-.6c3.18-.66 5.04-3.42 7.5-9.3l9.6-22.92zm-3.48 10.68L66.27 51.3l.574.025c.679.025 1.405.032 2.345.034l1.341.001 4.08-.06zm40.68-1.62h.6l-.004-.48c-.013-.857-.056-1.61-.056-2.88 0-1.44.06-3.24.18-4.44l-.602.068a7.79 7.79 0 01-.838.052c-1.68 0-3.72-.78-6.72-.78-6.48 0-9.36 3.54-9.36 8.22 0 4.592 2.822 7.093 6.857 9.943l1.86 1.296c3.42 2.403 5.083 3.906 5.083 6.821 0 3.36-2.22 4.8-5.16 4.8-4.32 0-6.42-3.18-6.42-7.32 0-.72.06-1.38.12-1.8h-.6c-1.08 1.38-1.32 2.88-1.32 4.26 0 1.02.12 2.04.12 3.18 0 1.08-.12 2.04-.54 2.7.48-.06 1.2-.06 1.62-.06 1.92 0 4.32.72 7.14.72 6.78 0 10.56-4.08 10.56-9.48 0-4.02-2.1-6.54-7.02-9.9l-1.947-1.323c-2.813-1.938-4.833-3.622-4.833-6.477 0-2.52 1.56-3.9 4.08-3.9 3.18 0 5.58 2.22 7.2 6.78zM145.35 51c0 7.02-2.04 10.92-7.98 10.92-2.76 0-4.86-.84-5.88-2.88-.864-1.67-.954-4.17-.96-7.606V39.728c.02-6.45.335-7.585 3-8.048v-.6l-1.155.04c-1.377.039-3.321.071-4.938.079h-1.254c-2.156-.01-4.893-.064-6.093-.119v.6l.277.052c2.41.5 2.704 1.776 2.722 7.996l.001 11.812c0 4.5.78 7.08 2.52 8.88 2.7 2.76 7.38 3.48 10.68 3.48 9.06 0 11.1-5.34 11.1-12.66l.002-11.489c.037-6.47.66-7.607 4.198-8.071v-.6l-1.768.068c-.982.03-2.12.052-3.452.052l-1.269-.007a110.669 110.669 0 01-3.951-.113v.6l.356.05c3.34.517 3.844 1.866 3.844 8.71zm42.48 13.32c-.192-4.656-.23-10.042-.238-14.928v-4.41c.041-10.917.919-12.366 4.078-13.302v-.6l-.843.036c-1.233.046-2.865.084-4.497.084l-1.306-.007a125.847 125.847 0 01-4.274-.113v.6l.289.085c3.258 1.02 4.391 3.636 4.391 14.015v7.08l-24.66-22.38h-.84c.203 4.925.234 10.494.24 15.544l-.002 3.555c-.042 10.916-.919 12.365-4.078 13.301v.6l.843-.036c1.13-.042 2.596-.078 4.09-.083l.407-.001c2.22 0 4.26.06 5.58.12v-.6l-.289-.085c-3.21-1.005-4.358-3.56-4.39-13.569l-.001-6.986 24.66 22.08zm43.68-17.34c0-10.56-7.5-16.68-17.28-16.68s-17.28 6.12-17.28 16.68 7.5 16.68 17.28 16.68 17.28-6.12 17.28-16.68zm-17.28 15c-6.09 0-8.683-5.534-8.758-14.592l-.002-.408c0-9.3 2.58-15 8.76-15s8.76 5.7 8.76 15-2.58 15-8.76 15zm54.96-.3c-2.82-.96-6.84-4.98-10.68-13.2 6.6-2.1 7.98-5.82 7.98-8.64 0-5.16-4.68-8.7-14.4-8.7l-5.924.057-1.647.002c-2.281-.01-4.969-.064-6.169-.119v.6c2.82.42 3 2.1 3 7.56v15.232c-.02 6.45-.335 7.585-3 8.048v.6l1.155-.04c1.377-.039 3.321-.071 4.938-.079h1.254c2.156.01 4.893.064 6.093.119v-.6c-2.665-.463-2.98-1.598-2.999-8.048l-.001-5.272h1.74l.342.66c3.8 7.435 4.943 13.38 13.278 13.38 1.68 0 3.36-.24 5.04-.96zm-20.4-14.04v-14.4c.9-.24 2.1-.42 3.24-.42 4.32 0 5.82 2.46 5.82 7.2 0 4.8-1.56 7.62-7.5 7.62zm38.64 14.88c-2.665-.463-2.98-1.598-2.999-8.048V39.728c.019-6.45.334-7.585 2.999-8.048v-.6l-.888.032c-1.384.043-3.48.079-5.205.087h-1.254c-2.156-.01-4.893-.064-6.093-.119v.6l.277.052c2.41.5 2.704 1.776 2.722 7.996v14.744c-.019 6.45-.334 7.585-2.999 8.048v.6l1.155-.04c1.377-.039 3.321-.071 4.938-.079h1.254c2.156.01 4.893.064 6.093.119zm-198.09 53.7c-2.04-.72-2.64-4.26-3.3-8.4l-5.58-35.34h-1.5l-14.4 33-15.12-33h-1.5l-5.76 33.24-.286 1.583c-1.01 5.421-1.914 8.148-4.274 8.917v.9l1.688-.083c.513-.02 1.103-.034 1.944-.036l1.117.001c1.98.012 3.986.065 5.151.118v-.9c-2.4-.6-3.3-2.52-3.3-5.58 0-1.38.18-2.94.48-4.74l3.06-17.82 13.38 29.4h1.02l12.48-28.92 3.69 20.743c.307 1.754.51 3.109.51 4.097 0 1.68-.54 2.46-1.92 2.82v.9l1.056-.04c1.315-.04 3.117-.075 4.75-.08l1.344.004c1.914.014 4.199.065 5.27.116zm19.38.9v-.6l-.277-.052c-2.41-.5-2.704-1.776-2.722-7.996V93.728c.019-6.45.334-7.585 2.999-8.048v-.6l-1.155.04c-1.377.039-3.321.071-4.938.079h-1.254c-2.156-.01-4.893-.064-6.093-.119v.6l.277.052c2.41.5 2.704 1.776 2.722 7.996v14.744c-.019 6.45-.334 7.585-2.999 8.048v.6l.888-.032c1.384-.043 3.48-.079 5.205-.087h1.254c2.156.01 4.893.064 6.093.119zm24.84 0v-.6l-.277-.052c-2.41-.5-2.704-1.776-2.722-7.996l-.001-21.352c6 0 7.56.84 8.64 5.76h.66a44.972 44.972 0 01-.118-3.156v-2.328c.003-1.052.015-2.179.058-3.336l-.412.196c-1.54.69-3.28.914-10.935.941h-3.45c-8.117-.03-9.436-.293-11.123-1.137.06 1.62.06 3.18.06 4.56l-.002 1.104a44.972 44.972 0 01-.118 3.156h.66c1.08-4.92 2.64-5.76 8.64-5.76l-.001 21.352c-.019 6.45-.334 7.585-2.999 8.048v.6l.888-.032c1.384-.043 3.48-.079 5.205-.087h1.254c2.156.01 4.893.064 6.093.119zm28.26-23.82h.6l-.004-.48c-.013-.857-.056-1.61-.056-2.88 0-1.44.06-3.24.18-4.44l-.602.068a7.79 7.79 0 01-.838.052c-1.68 0-3.72-.78-6.72-.78-6.48 0-9.36 3.54-9.36 8.22 0 4.592 2.822 7.093 6.857 9.943l1.86 1.296c3.42 2.403 5.083 3.906 5.083 6.821 0 3.36-2.22 4.8-5.16 4.8-4.32 0-6.42-3.18-6.42-7.32 0-.72.06-1.38.12-1.8h-.6c-1.08 1.38-1.32 2.88-1.32 4.26 0 1.02.12 2.04.12 3.18 0 1.08-.12 2.04-.54 2.7.48-.06 1.2-.06 1.62-.06 1.92 0 4.32.72 7.14.72 6.78 0 10.56-4.08 10.56-9.48 0-4.02-2.1-6.54-7.02-9.9l-1.947-1.323c-2.813-1.938-4.833-3.622-4.833-6.477 0-2.52 1.56-3.9 4.08-3.9 3.18 0 5.58 2.22 7.2 6.78zm33.96 11.7c0 7.02-2.04 10.92-7.98 10.92-2.76 0-4.86-.84-5.88-2.88-.864-1.67-.954-4.17-.96-7.606V93.728c.02-6.45.335-7.585 3-8.048v-.6l-1.155.04c-1.377.039-3.321.071-4.938.079h-1.254c-2.156-.01-4.893-.064-6.093-.119v.6l.277.052c2.41.5 2.704 1.776 2.722 7.996l.001 11.812c0 4.5.78 7.08 2.52 8.88 2.7 2.76 7.38 3.48 10.68 3.48 9.06 0 11.1-5.34 11.1-12.66l.002-11.489c.037-6.47.66-7.607 4.198-8.071v-.6l-1.768.068c-.982.03-2.12.052-3.452.052l-1.269-.007a110.669 110.669 0 01-3.951-.113v.6l.356.05c3.34.517 3.844 1.866 3.844 8.71zm11.94 11.52v.6l.883-.032c1.376-.043 3.461-.079 5.286-.087l1.706.002c2.584.011 6.672.057 7.665.057 12.72 0 18.9-7.5 18.9-15.96 0-8.366-5.926-15.793-18.533-15.957h-1.054c-1.665.01-5.37.05-7.527.056l-1.851-.005c-2.11-.016-4.395-.065-5.475-.114v.6c2.82.42 3 2.1 3 7.56l-.002 16.663c-.03 4.714-.347 6.222-2.998 6.617zm10.44-29.28c.9-.24 3.54-.42 4.8-.42 6.36 0 10.14 4.56 10.14 14.16 0 9.84-3.96 14.4-10.14 14.4l-.467-.007c-1.358-.034-3.533-.2-4.333-.413zm60.36 29.22c-2.16-.6-3.6-2.28-4.8-5.22l-10.8-27h-1.5l-9.6 22.92c-2.46 5.88-4.32 8.64-7.5 9.3v.6l4.71-.057 1.105-.002c1.684.01 4.292.059 5.165.059v-.6c-2.1-.36-3-1.26-3-2.94 0-1.32.6-3.18 1.62-5.64l.42-.96.683-.026c.78-.024 1.65-.031 2.767-.033l6.09-.001 1.02 2.64.256.695c.562 1.564.884 2.733.884 3.625 0 1.56-.96 2.28-3.24 2.64v.6l8.816-.06c1.796.008 6.066.06 6.904.06zm-15.18-11.16l-4.08.06-2.445-.007A42.978 42.978 0 01255 105.3l4.44-10.38z"/></defs><g fill="none"><use fill="#000" filter="url(#a)" xlink:href="#b"/><use fill="url(#c)" xlink:href="#b"/></g></svg>