<svg xmlns="http://www.w3.org/2000/svg" viewBox="0 0 24 24"><path d="M12 0C5.387 0 0 5.387 0 12s5.387 12 12 12 12-5.387 12-12S18.613 0 12 0zM8.133 2.053l-6.08 6.08a10.818 10.818 0 016.08-6.08zM9.44 22.347l3.6-3.6a15.096 15.096 0 01-2.48 3.813 8.28 8.28 0 01-1.12-.213zm-.72-.187a15.1 15.1 0 01-1.173-.453l6.72-6.72a15.917 15.917 0 01-.587 2.213l-4.96 4.96zm-1.813-.8a8.081 8.081 0 01-1.014-.64l8.64-8.64c0 .587-.053 1.173-.106 1.76l-7.52 7.52zM5.36 20.347a22.84 22.84 0 01-.88-.774l9.867-9.866c.08.506.133.986.133 1.493l-9.12 9.147zm-1.333-1.254a7.668 7.668 0 01-.72-.906L13.92 7.573c.133.427.24.88.32 1.334L4.027 19.093zM2.933 17.6a13.48 13.48 0 01-.586-1.067l10.88-10.88c.16.4.32.774.453 1.174L2.933 17.6zm-.88-1.733c-.16-.4-.293-.827-.4-1.227L12.347 3.947c.213.346.4.72.56 1.066L2.053 15.867zm-.56-2a13.55 13.55 0 01-.16-1.494l10-10c.24.32.454.64.667.96L1.493 13.867zm9.44-12.027l-9.573 9.6a9.016 9.016 0 01.293-1.92L9.52 1.653c.347-.08.693-.16 1.067-.186.106.106.213.24.346.373z" fill="#D9CEC1"/></svg>