<svg xmlns="http://www.w3.org/2000/svg" xmlns:xlink="http://www.w3.org/1999/xlink" viewBox="0 0 170 179"><defs><filter id="a" width="118.5%" height="123%" x="-6.2%" y="-5.6%" filterUnits="objectBoundingBox"><feMorphology in="SourceAlpha" radius="1" result="shadowSpreadOuter1"/><feOffset dx="5" dy="14" in="shadowSpreadOuter1" result="shadowOffsetOuter1"/><feGaussianBlur in="shadowOffsetOuter1" result="shadowBlurOuter1" stdDeviation="3"/><feColorMatrix in="shadowBlurOuter1" values="0 0 0 0 0 0 0 0 0 0 0 0 0 0 0 0 0 0 0.399011145 0"/></filter><path id="b" d="M146 0v136.175l-.363.118c-.234-1.163-.45-1.912-.65-2.25-.3-.506-.947-1.747-1.939-3.721l1.008 5.831-.63-.523-.378-.827c-.366-.342-.55-.067-.55.827v.523h-1.03c-.27.1-.406.337-.406.711 0 .56-.53.394-.53.394s-1.384.39-1.792.39h-2.175v.702c-.862 0-1.293-.12-1.293-.359 0-.238-.336-.353-1.01-.343v1.365c-.447.513-.815.887-1.104 1.121-.434.35-.711 0-.711 0s-1.353 0-1.353.968l.002-.043-2.552.836h-.041l-.762-.793-.433-.967v.967c0 .29-.403.538-1.21.746l-.193.047h-2.138l-1.253.684h-.376l-1.02-.684v1.077l-.406-1.077h-.77c-.28 0-.45.228-.508.684v2.302l-4.821 1.58a4.093 4.093 0 01-.85-.008h-1.208l-.404-.338s-.751-.342-.751-.853c0-.341-.634-2.424-1.901-6.25-.053 4.297.063 6.445.35 6.445s.17.22-.35.658c.298.222.223.471-.224.746-.67.413-.593.686-.593.686s-.537.605-.962 1.174l-7.03 2.304c-.24-.067-.513-.23-.818-.487-.989.303-1.676.641-2.06 1.014-.578.558-1.966.397-2.613.397h-.687l-.59-.397-1.134.397h-1.453l-1.14-4.402v5.358c-1.183.158-1.774.374-1.774.65 0 .413-1.347.99-1.347.99l-.01.005c-.098.042-.91.378-1.676.378-.544 0-1.024.186-1.44.558l-1.748.45-.561.354-1.575.956h-1.369v-.499l-.952.499v.912h-.977v.706l-.239.079-1.187-.785h-1.22L73.027 160l-2.821-.92v-2.431h-1.082l-2.44-.554s-.41-.695-.41-1.068c0-.249-.173-.377-.518-.385l-2.266.385-2.137-.739-1.264.354-.906.385-1.63-1.44c-.852-.218-1.278-.468-1.278-.75s-.258-.463-.774-.543v-1.053l-1.16-4.315v4.732c0 .279-.377.672-1.13 1.179v-.543s-1.08-.207-1.789-.636c-.472-.285-.723-.285-.753 0l-.846-.417c-.229-.855-.458-1.428-.687-1.717-.343-.435-1.023-.516-1.023-.516h-1.059l-.738.516h-1.44l-.625-.516-.783-.453h-2.321c-.408-3.04-.612-4.743-.612-5.109 0-.366-.498.493-1.492 2.578-.657.35-.985.65-.985.902 0 .253-.473.253-1.417 0l-1.778-.902h-1.524l-2.597-1.32-.536-.889.536-.369.411-1.502-.947-4.232v4.232l-.548 1.145h-2.354l-1.208.357-2.314-.357-5.527-1.75-1.173-.902-.519-.86-1.876-.473h-.82l-1.216-.825c.35-.607.524-1.166.524-1.676 0-.511-.175-.593-.524-.245l-.551 1.01-1.376.344-1.388-.343-1.131-.766h-1.81v-.8H4.262l-1.865-.799-1.162-.664L0 135.487V0h146z"/></defs><g fill="none" fill-rule="evenodd"><g transform="translate(12 2)"><use fill="#000" filter="url(#a)" xlink:href="#b"/><use fill="#000" xlink:href="#b"/><path d="M49.669 90.226c.219.08.364.241.476.438.124.218.186.458.212.704.06.558.11 1.116.157 1.676.072.86.138 1.72.206 2.581l.117 1.476c.032.38.068.76.104 1.167.064-.024.13-.047.193-.075.186-.08.362-.18.571-.19.054-.002.16-.045.16-.045l.185-.103.042-.136.214.042.286.34s.057.176.075.266c.01.054.002.113.002.17l-.049.028.182.095c-.126.132-.213.245-.32.333-.248.203-.5.4-.759.588-.238.174-.484.337-.73.5-.096.064-.13.134-.127.257.014.546.131 1.076.207 1.612.054.378.103.757.136 1.137.068.766.089 1.536.223 2.296.01.06.02.13-.001.181-.077.18-.01.354.015.527.16 1.08.3 2.161.4 3.248.042.46.108.919.154 1.379.066.657.107 1.315.076 1.976-.004.087-.013.174-.009.26a.546.546 0 01-.116.393.46.46 0 00-.101.252c-.009.19-.09.347-.178.5-.191.33-.387.658-.59.98-.124.2-.131.196-.345.091-.016-.008-.035-.008-.065-.014v.118c-.009 0-.017.002-.026.004-.01-.024-.03-.048-.03-.072 0-.086.01-.172.009-.259-.001-.17.013-.347-.015-.514a5.552 5.552 0 01-.064-.716c-.02-.542-.037-1.084-.061-1.626-.024-.54-.057-1.08-.084-1.62-.018-.369-.021-.739-.049-1.107-.036-.48-.079-.958-.14-1.434-.054-.414-.153-.822-.204-1.236-.036-.291-.032-.589-.036-.884-.002-.228.006-.456.018-.684.028-.558-.06-1.105-.126-1.655a12.99 12.99 0 00-.295-1.615c-.036-.143-.02-.178.063-.262-.012-.067-.036-.124-.03-.178a1.555 1.555 0 00-.064-.56c-.127.06-.252.117-.378.175-.256.119-.511.24-.77.354a.998.998 0 01-.247.07c-.084.012-.14.042-.143.14h-.216c-.006.014-.024.04-.028.068-.091.584-.176 1.168-.272 1.751-.08.492-.18.981-.262 1.473-.076.46-.139.924-.21 1.386-.028.188-.06.377-.089.565-.02.124-.01.262-.062.371-.088.188-.103.387-.137.584-.015.085-.058.174.076.226.058.022.031.104-.015.157-.067.079-.128.163-.192.246-.13-.052-.221.04-.255.276-.098.042-.158-.004-.206-.098-.056.02-.12.03-.166.065-.117.085-.234.054-.344.003-.096-.044-.177-.145-.303-.041l-.017-.203-.297.098-.176-.25.213-.013c.027-.098.058-.203.083-.308.037-.15.064-.301.105-.449a7.66 7.66 0 00.206-1.081c.058-.445.093-.893.164-1.335.104-.65.229-1.297.35-1.945.033-.18.083-.357.123-.537.008-.034.004-.072.008-.145-.41.24-.792.482-1.219.625-.216-.156-.156-.41-.234-.623a.447.447 0 00.214-.334.149.149 0 01.04-.08c.287-.236.506-.543.837-.737.426-.248.636-.651.697-1.139.029-.228.097-.441.279-.602a.236.236 0 00.06-.126c.018-.095.027-.193.037-.29.011-.106.04-.218.02-.32a.22.22 0 01.032-.18c.07-.105.076-.224.09-.348.023-.232.084-.459.127-.689l.333-1.797c.005-.024.013-.05.01-.073-.036-.305.087-.591.101-.89.013-.287.115-.553.172-.83a4.98 4.98 0 01.236-.808c.044-.115.03-.254.041-.381.012-.128.02-.257.038-.384.007-.046.034-.09.053-.135.029-.067.118-.123.03-.21-.01-.009.013-.057.029-.083.308-.511.618-1.022.928-1.532.013-.02.032-.037.04-.046.06-.005.114.005.155-.014.108-.05.193-.153.336-.113.023.006.066-.057.106-.094zm-8.704-1.71c.141.075.255.15.378.194.082.03.122.066.164.156.31.661.48 1.367.586 2.097.08.552.085 1.102 0 1.652a5.389 5.389 0 01-.367 1.271c-.044.104-.09.21-.114.32-.068.3-.264.512-.42.75-.049.077-.143.124-.224.169-.078.043-.15.01-.181-.079-.027-.079-.068-.188-.04-.246.085-.174.034-.344.02-.511-.016-.181-.06-.357-.034-.542a.465.465 0 00-.127-.387c-.071-.075-.08-.156-.08-.254 0-.128-.006-.257-.023-.383-.012-.092-.043-.182-.149-.228-.027.056-.053.107-.075.16l-.595 1.418c-.025.06-.047.133-.091.173-.115.102-.205.208-.2.385 0 .038-.05.075-.07.116a1.269 1.269 0 00-.064.162c-.025.074-.03.163-.07.224-.238.359-.36.787-.576 1.16-.071.121-.114.27-.147.412-.034.152.036.232.18.223.096-.006.193-.027.287-.052.07-.018.13-.081.21-.027.017.013.058-.006.084-.02.223-.124.438-.273.67-.37.267-.114.549-.184.825-.27.053-.017.112-.013.163-.033.065-.027.118-.016.187 0 .182.042.371.06.557.055.13-.002.236.056.351.094.034.011.064.049.097.051.19.016.278.16.337.33.05.142.118.279.106.444-.006.082.05.167.054.252.009.16 0 .32 0 .481.001.175.004.349.01.522a5.033 5.033 0 01-.166 1.504c-.057.21-.032.425-.06.636-.004.039.006.097-.014.115-.118.11-.074.222-.043.36.031.145.018.31-.008.46-.237 1.378-.608 2.716-1.008 4.045-.39 1.296-.773 2.594-1.251 3.856a20.69 20.69 0 01-1.183 2.59c-.205.375-.373.775-.57 1.157-.126.248-.274.481-.412.721-.086.15-.156.318-.317.396-.005.004-.012.008-.013.014-.03.176-.123.145-.226.069-.11.12-.211.233-.313.346-.144-.007-.048-.174-.1-.206-.119-.073-.066-.168-.057-.26.008-.094.02-.187.03-.28l-.164-.085c.027-.116.085-.153.19-.122.094-.436.194-.868.278-1.304.05-.258.106-.52.236-.736.243-.405.34-.875.517-1.308.105-.258.18-.53.273-.793a.516.516 0 01.086-.152c.034-.041.082-.066.034-.13-.006-.008 0-.04.01-.045.103-.067.078-.167.069-.27a.501.501 0 01.02-.196c.102-.332.214-.66.314-.993.048-.159.081-.323.116-.486.02-.093.041-.18.144-.192-.054-.249.023-.455.16-.638.056-.076.098-.137.08-.25a.435.435 0 01.06-.267c.093-.14.095-.283.077-.44-.006-.05.01-.106.024-.157.333-1.232.579-2.487.796-3.75a11.95 11.95 0 00.189-1.73c.006-.268-.031-.538-.056-.806a.711.711 0 00-.065-.21c-.086-.195-.212-.272-.404-.234-.095.018-.19.052-.28.095-.363.176-.675.439-.98.713-.248.223-.494.447-.75.656-.27.22-.565.384-.9.446-.09.017-.182.021-.283.033a.455.455 0 00-.237-.26c-.082-.04-.136-.141-.205-.182a.906.906 0 01-.38-.467c-.014-.03-.062-.068-.087-.064-.157.028-.203-.128-.29-.21-.061-.058-.038-.21.026-.292.015-.019.046-.029.05-.048.032-.15.082-.301.083-.453.004-.312.11-.593.212-.868.174-.473.369-.938.582-1.39.18-.383.406-.738.597-1.115.072-.143.158-.275.191-.453.042-.22.172-.416.25-.628.088-.237.258-.414.35-.65.114-.297.234-.588.305-.903.021-.096.072-.186.115-.275.088-.182.118-.385.179-.576.049-.152.109-.3.181-.44.288-.553.639-1.057 1.016-1.54.067-.086.12-.187.172-.285.05-.09.074-.201.196-.216.018-.002.05-.071.042-.091-.04-.087.011-.122.06-.165l.155-.144a.548.548 0 01.268-.151c.022-.005.044-.004.096-.008l-.162.154c.148.003.228-.09.326-.124.103-.035.134-.176.21-.197zm47.134 1.609a.96.96 0 01.472.45c.113.202.169.423.2.65.03.213.052.429.06.644.005.114-.043.23-.038.343.009.187.023.379.067.56.1.41.12.826.15 1.243.007.106-.01.222.092.302.015.011.022.05.015.068-.072.181.016.35.044.521.093.577.2 1.153.303 1.728.072.404.15.808.227 1.225.088-.06.17-.105.24-.164.087-.072.171-.123.293-.11.091.009.143-.059.15-.15.007-.086.052-.135.146-.165l-.033.111c.134.035.138-.108.21-.14l.204.03c.108.22.23.46.342.704.035.077.042.166.059.25a.1.1 0 01-.013.068c-.1.16-.122.231-.109.372l-.183.135.243.04c-.085.21-.188.226-.317.071l-1.218.887c.014.194.027.403.046.61.044.485.085.97.136 1.453.05.465.115.929.165 1.394.076.71.154 1.42.134 2.137-.006.233.03.467.047.7l.03.368c.02.251.047.502.057.754.019.473.08.944.046 1.419-.01.128-.007.128.075.192-.045.085-.112.165-.13.255-.02.092.008.193.018.29l.22 2.112c.004.043.007.086.008.13.005.13-.014.254.07.384.054.081.037.225.017.335-.032.185.045.345.068.534-.04.024-.092.06-.073.156.06.293-.009.553-.248.746-.262.212-.53.416-.82.64-.042-.222-.218-.257-.375-.34l.121-.228c-.03-.062-.074-.112-.078-.166-.034-.528-.133-1.046-.222-1.567-.035-.206-.052-.415-.071-.623-.025-.262-.052-.524-.064-.786-.006-.146.016-.293.025-.441l.056.013c0-.041.006-.082 0-.12l-.344-2.06a.496.496 0 01.183-.454c.025-.02.034-.062.056-.106-.144-.076-.136-.216-.147-.346-.061-.705-.122-1.41-.177-2.116-.046-.582-.08-1.167-.129-1.75-.04-.484-.08-.969-.209-1.441-.032-.116-.022-.242-.042-.362-.017-.107-.052-.21-.072-.317-.025-.132-.041-.265-.062-.4l-.204.03c-.038.075-.002.208-.153.216l-.05-.118c-.032.013-.061.022-.088.035-.3.156-.601.309-.931.395-.074.019-.165.044-.207.098-.07.091-.161.173-.183.302-.104.625-.218 1.25-.322 1.875-.095.576-.162 1.159-.276 1.731-.153.763-.201 1.539-.323 2.305-.023.15-.075.295-.108.444a1.15 1.15 0 00-.034.232c-.005.15-.028.292-.13.412-.068.081-.078.177-.046.286-.07.033-.12.075-.198-.014-.054-.062-.172-.001-.263.118-.037-.072-.035-.187-.158-.16-.086.02-.147.106-.16.255-.035-.053-.062-.086-.082-.123a.832.832 0 00-.178-.21c-.077-.055-.182-.096-.121-.227.003-.008-.004-.025-.01-.033-.108-.12-.06-.253-.034-.386.134-.67.267-1.342.398-2.013.02-.108.031-.218.039-.328.019-.288.033-.576.051-.865.008-.122.024-.243.036-.363l-.077-.015c.006-.014.007-.03.015-.034.076-.046.091-.114.097-.2.02-.273.052-.545.08-.817l.03-.19a.494.494 0 00.002-.094c-.016-.198.055-.38.077-.57.013-.115.012-.223-.05-.324l-2.518 1.498-.077-.113-.188.041.033-.125-.206-.126-.166.219.052-.213s.145-.115.137-.226l.068-.055s.195-.147.284-.231c.37-.351.732-.713 1.107-1.06.318-.292.67-.54 1.04-.764.18-.11.35-.231.477-.401a.592.592 0 00.106-.229c.048-.22.084-.441.118-.663.007-.045-.02-.094-.02-.142l-.005-.082c.001-.054.02-.102.114-.119-.103-.112-.09-.212.014-.316.036-.035.031-.11.047-.168.038-.138.075-.277.114-.415.072-.247.148-.494.215-.743.03-.111.042-.227.063-.34.022-.121.06-.241.065-.363.012-.254.1-.49.154-.734.092-.42.15-.85.24-1.27.062-.294.157-.581.234-.872.124-.464.25-.928.363-1.395.053-.221.077-.449.113-.674.051-.32.154-.619.324-.898.142-.23.26-.475.391-.712.08-.146.16-.292.254-.43.175-.254.41-.32.693-.201zm-26.483-.04c.025-.01.074.026.108.046.115.064.153.064.23-.002l.248.232c.102-.02.208-.105.288.045l-.03.094.022.014.076-.083c.01.006.027.01.027.017a.517.517 0 00.18.33c.048.047.084.106.12.163.129.206.118.362-.021.565a.409.409 0 00-.073.2c-.02.306-.134.57-.3.823-.17.257-.343.509-.608.706.051.032.08.054.11.07.98.47 1.556 1.261 1.794 2.305.266 1.17.131 2.307-.35 3.4-.188.427-.409.841-.634 1.251a590.332 590.332 0 01-2.075 3.732 14.16 14.16 0 01-1.637 2.3c-.634.738-1.265 1.477-1.905 2.21-.71.814-1.46 1.585-2.32 2.243-.064.048-.126.099-.194.142-.12.077-.225.06-.307-.047-.081-.104-.073-.209.022-.306a.562.562 0 00.162-.258.53.53 0 01.232-.32c.119-.073.22-.168.24-.33.01-.091.071-.173.156-.235.082-.059.145-.144.216-.22.025-.027.04-.064.07-.085a.396.396 0 00.167-.362c-.005-.099.036-.152.121-.179.122-.038.165-.141.184-.248.015-.085.038-.141.12-.188.056-.033.125-.12.117-.173-.018-.13.054-.222.116-.3.15-.187.207-.404.23-.628.03-.28.049-.567.032-.848-.074-1.24-.099-2.478.009-3.716.06-.7.157-1.397.209-2.098.024-.323-.013-.652-.035-.978-.02-.276-.048-.553-.09-.827-.025-.162.02-.313.052-.462.028-.132.043-.247-.018-.371-.021-.041-.016-.096-.023-.144.15-.183.149-.41.164-.625.054-.786.098-1.573.14-2.36.006-.133-.019-.267-.024-.401a.748.748 0 01.019-.163c.015-.069.051-.136.054-.205.015-.329.022-.658.032-.99-.026-.003-.045-.01-.06-.006-.547.137-1.094.275-1.64.415-.11.028-.227.043-.319.129a.258.258 0 01-.148.064c-.116.012-.193.065-.226.18l-.122-.03-.06.105-.35-.11c-.044-.058-.089-.128-.145-.19-.175-.192-.145-.41.084-.53.57-.303 1.144-.597 1.749-.826.19-.073.373-.159.557-.244.167-.078.33-.16.466-.292.065-.062.155-.099.23-.151.033-.023.073-.05.084-.084.03-.094.064-.123.154-.053.025.019.09-.007.134-.024.302-.118.598-.257.906-.355.898-.287 1.804-.544 2.743-.662.18-.022.366.004.54-.071zm22.653-1.59l.234.042.104.243-.166.218c-.144.124-.29.25-.453.348-1.038.623-2.07 1.259-3.175 1.761l-.416.19v.197c.021.89-.038 1.776-.092 2.662a67.604 67.604 0 00-.115 2.421c-.04 1.616-.06 3.233-.087 4.848-.014.778-.025 1.555-.036 2.332a8.142 8.142 0 01-.168 1.579c-.042.202-.07.596-.075.681v.017s-.025.381-.043.572c-.023.25.046.49.085.732.015.097.026.527.026.527l-.13.763.09.086-.11.126-.12.139-.284.187s-.174-.009-.3-.055a10.78 10.78 0 01-.24-.092l-.198-.24-.106-.386-.142-.228.036-.156s-.124-1.175-.165-1.765c-.032-.45.065-.884.083-1.326.03-.77.053-1.541.11-2.31.08-1.09.092-2.18.113-3.271.01-.5-.003-1-.005-1.5v-.82l.163-.232-.052-.259s-.038-.048-.032-.063c.046-.136-.073-.209-.109-.312a1.437 1.437 0 01-.077-.412c-.025-.561-.024-1.123-.06-1.683-.026-.406-.001-.812-.022-1.216-.01-.208-.051-.413-.08-.635l-.35.148c-.414.173-.826.348-1.242.515-.136.055-.264.15-.432.08-.048-.02-.19.053-.19.053s-.14.033-.202-.034c-.023-.023-.073-.024-.112-.028-.121-.014-.183-.06-.193-.183-.027-.297.091-.828.091-.828l.185-.376.307-.364.058-.043s.194-.1.28-.17a.345.345 0 01.192-.084c.195 0 .35-.099.513-.178.214-.105.647-.305.647-.305l.113-.076s.196-.096.3-.126c.029-.009.122.073.122.073l.188-.084.077-.095s.081-.073.13-.088c.286-.089.575-.172.862-.256.012-.004.026 0 .036-.006.397-.228.85-.27 1.278-.39.793-.22 2.362-.712 2.362-.712l.994-.153zm-14.07 1.022c.133.038.256.106.383.16l.177.07v-.124c.017-.01.028-.021.038-.02.152.01.306.009.455.036.533.1.948.392 1.268.825.316.429.5.917.635 1.427.17.64.25 1.295.297 1.954.063.875.062 1.75.029 2.626a30.75 30.75 0 01-.298 3.148c-.28 1.988-.762 3.931-1.293 5.863-.146.53-.282 1.06-.428 1.589-.12.437-.298.849-.564 1.218-.235.326-.522.591-.898.743-.595.24-1.145.156-1.641-.25-.322-.262-.538-.604-.697-.985-.188-.447-.272-.921-.364-1.392-.031-.16-.1-.32-.046-.49.005-.017-.017-.043-.029-.064-.044-.077-.066-.24-.066-.24s.004-.1.015-.15a2.94 2.94 0 00.042-.249c.003-.028-.004-.067-.022-.087-.077-.08-.096-.282-.096-.282l-.048-.176s0-.118.012-.177c.036-.175-.026-.327-.085-.482l-.045-.118-.126-.823-.008-.054s-.076-1.44-.083-2.161c-.01-.876-.01-1.752-.026-2.628-.01-.512-.044-1.023-.067-1.534-.007-.13-.017-.258-.024-.387l.009-.071s.038-.16.04-.247c.012-.411-.015-.82-.049-1.227a1.883 1.883 0 01.002-.418c.014-.1.04-.199.088-.295.023-.047.017-.109.022-.164.023-.233.04-.466.07-.698.056-.44.112-.88.182-1.318.039-.236.105-.467.163-.7.01-.04.038-.077.06-.113.02-.03.056-.055.067-.088.085-.267.311-.41.502-.584a1.56 1.56 0 00.212-.226c.11-.151.271-.18.435-.208.042-.007.084-.008.154-.014-.013-.128.057-.18.153-.208.205-.059.409-.126.617-.173.07-.016.153.032.227.024.074-.008.15-.082.214-.071.147.025.296-.028.436.013zm43.702-.386c-.011.172-.006.345-.02.517-.014.18-.087.323-.265.402-.337.15-.668.312-1.005.46-.624.272-1.25.54-1.876.805-.163.068-.332.117-.497.18-.16.062-.315.135-.476.196-.326.125-.655.239-.98.368-.369.148-.734.31-1.102.462-.142.059-.203.144-.185.31.015.142-.027.29-.032.436-.006.203-.01.408.002.61.013.199.048.396.076.61.197-.006.358-.034.522-.1.284-.113.583-.191.872-.295.254-.09.502-.198.756-.291.085-.031.177-.04.266-.062.142-.035.316-.007.386-.19.007-.02.038-.033.06-.04.212-.072.424-.142.636-.211.016-.005.037 0 .054.005.184.058.353.011.518-.071.033-.016.082.004.121 0 .077-.005.162.003.225-.03.084-.043.12-.032.152.052.016.043.042.084.063.125-.2.147-.2.147-.114.435-.126.133-.247.28-.39.404-.268.233-.548.454-.824.679-.029.022-.065.055-.094.052-.158-.012-.255.104-.375.169-.244.13-.485.265-.729.394a.738.738 0 01-.19.066.589.589 0 00-.326.15c-.013.013-.032.033-.045.032-.145-.023-.219.108-.332.152-.076.03-.163.04-.235.079a9.38 9.38 0 00-.493.285c-.029.017-.043.057-.07.08-.03.028-.07.072-.102.07-.13-.014-.19.066-.27.15-.071.075-.181.115-.28.174-.038.674-.122 1.345-.114 2.026.008.814-.046 1.627-.08 2.44-.019.444-.055.887-.08 1.33a.842.842 0 00.026.217.837.837 0 01-.035.485.297.297 0 00-.024.162c.06.275.02.566.136.833.019.04.008.097 0 .145-.03.211-.065.422-.103.652.116-.036.22-.063.321-.099.3-.106.6-.217.902-.321.067-.023.141-.023.21-.038.027-.006.051-.024.078-.035.178-.078.355-.164.538-.23.128-.046.268-.055.397-.098a.78.78 0 00.235-.132.424.424 0 01.359-.097c.104.022.153-.005.155-.08.08.002.154.025.211.004.172-.063.348-.115.495-.236.072-.058.18-.066.27-.102.078-.031.163-.058.226-.11a.423.423 0 01.298-.105.657.657 0 00.307-.078c.146-.074.28-.174.42-.263.024-.016.049-.035.076-.049.189-.1.378-.2.568-.297.238-.122.48-.238.714-.364.053-.029.089-.09.122-.128l.26.042.168.23-.101.087c.015.01.026.02.04.022.026.007.068-.001.079.015.072.1.141.203.203.31.012.02-.01.063-.02.094a.719.719 0 01-.252.324c-.071.057-.15.108-.22.168-.029.026-.068.072-.062.1.027.12-.049.168-.13.217-.116.073-.213.185-.365.19-.316.244-.693.377-1.03.584-.47.288-.976.517-1.467.77-.21.11-.42.221-.633.324-.254.123-.514.233-.767.358-.252.126-.494.27-.747.394-.286.142-.58.27-.868.405-.417.196-.835.39-1.248.593a.736.736 0 00-.235.2 1.243 1.243 0 00-.156.27c-.099.202-.184.41-.288.61a.306.306 0 01-.162.134c-.144.048-.29.084-.393.21-.008.01-.034.005-.072.009l-.07-1.148c-.13-.064-.25-.035-.369.025-.099.05-.195.104-.297.146-.079.032-.158.135-.25.019-.07.031-.175.043-.204.097-.09.16-.242.108-.368.14-.186-.135-.316-.009-.451.096-.01.007-.022.009-.043.016l-.121-.103c.008-.022.009-.054.025-.065.097-.07.098-.161.067-.262l-.124-.424c-.013-.046-.042-.106-.024-.138.061-.114-.017-.126-.09-.145-.04-.01-.08-.014-.117-.02.06-.084.114-.162.17-.239a.095.095 0 01.042-.035c.224-.075.375-.26.572-.376.044-.026.1-.032.152-.048.034-.01.07-.019.101-.035.207-.108.423-.203.614-.333.146-.099.3-.175.452-.262a.253.253 0 00.141-.222c.008-.141.019-.283.02-.425.009-.591-.001-1.184.024-1.775.03-.74.087-1.477.136-2.216.06-.91.126-1.82.046-2.735-.026-.294-.014-.591-.019-.888-.002-.11 0-.22 0-.356-.3.072-.544.239-.843.271l-.117-.753c-.024-.158-.042-.318-.074-.474-.023-.112.01-.183.1-.251.264-.201.52-.413.784-.614a.222.222 0 00.102-.199c-.002-.641 0-1.283.002-1.924 0-.042-.01-.084-.016-.151l-1.171.174c-.043.007-.083.027-.124.033-.078.012-.147-.008-.193-.078-.049-.075-.058-.157-.003-.226.166-.209.07-.418.027-.637-.031-.166-.014-.343-.013-.514 0-.024.027-.054.05-.07.156-.119.32-.214.517-.261.17-.041.333-.12.498-.182.074-.028.096-.084.1-.159.011-.183.028-.365.043-.557.023-.012.049-.03.077-.04.37-.15.737-.305 1.112-.443.162-.06.337-.105.51-.12a.704.704 0 01.335.076c.126.057.154.174.119.346.036 0 .074.007.108 0 1.324-.293 2.65-.58 3.972-.886a8.61 8.61 0 001.453-.47c.219-.094.452-.157.684-.214.26-.064.396.08.382.323zm-15.666.536c.208.137.378.314.528.512.879 1.162 1.092 2.452.73 3.852l-.022.07c-.072.255-.136.323-.411.41l.13.087h-.118v.126l-.172-.099c-.06.022-.134.056-.21.07-.039.008-.114-.01-.124-.035-.088-.238-.27-.433-.283-.706a5.578 5.578 0 00-.095-.805c-.068-.37-.16-.735-.246-1.1a1.78 1.78 0 00-.104-.332c-.07-.15-.154-.29-.36-.27-.043.004-.09-.05-.155-.088-.068.159-.167.3-.226.467-.1.296-.232.581-.33.878a1.15 1.15 0 01-.17.335c-.09.122-.101.272-.14.411-.101.369-.193.74-.301 1.106-.127.429-.272.853-.4 1.281-.042.14-.065.286-.086.43-.063.417-.134.832-.175 1.25-.042.44-.137.874-.128 1.32.003.194-.051.389-.082.582-.028.17-.072.34-.085.51-.034.468-.056.936-.082 1.404-.013.234-.03.468-.038.702-.005.13-.004.26.004.388.012.213.064.414.184.593.168.252.328.508.569.7.222.18.46.217.721.091l.101-.045.13.107c.193-.048.193-.048.208-.275.058-.029.074.004.088.053.006.021.035.036.053.054a.96.96 0 00.027-.068c.01-.031.009-.078.03-.091.286-.186.403-.489.524-.781.201-.483.386-.973.571-1.462.066-.172.12-.346.097-.539-.008-.08.035-.167.06-.25.03-.104.074-.205.1-.31.058-.245.108-.49.16-.737.012-.054.017-.11.02-.165l.05-1.07c.009-.179.02-.357.034-.535.014-.184-.032-.296-.215-.359l-.345.185a2.175 2.175 0 01-.611.228.675.675 0 00-.286.15c-.045.04-.046.133-.068.207-.17-.057-.341-.118-.523-.043-.03.012-.07 0-.106.002-.063.006-.123-.007-.191.03-.057.03-.15-.001-.224-.005v-.227l-.135-.083.229-.144c-.116-.06-.109-.165-.106-.259.003-.09.032-.178.053-.29l.252-.148-.017-.166.17.134.43-.244c.748-.416 1.54-.738 2.317-1.09a9.69 9.69 0 011.616-.561c.216-.055.307-.025.407.172.063.125.096.265.153.394.052.12.088.22 0 .356-.055.089-.038.237.051.346-.143.108-.281.218-.426.32-.048.034-.117.036-.164.07-.114.08-.222.17-.329.261-.01.008-.013.026-.014.044v.026c0 .134 0 .267.002.4.005.32.01.638.017.957.002.104.017.21.012.313-.02.384-.038.769-.071 1.152-.036.404-.113.806-.123 1.21-.006.218-.09.434-.031.655.006.024-.008.057-.021.082-.061.126-.062.125 0 .213-.024.132-.052.243-.061.356-.033.41-.069.822-.085 1.234-.014.405.003.811-.013 1.216-.02.506.084 1.004.084 1.508 0 .048.018.096.03.143.006.024.031.05.026.067-.022.073-.098.173-.074.21.064.1.002.147-.04.206-.096.129-.203.25-.197.425.001.022-.011.06-.026.065-.166.054-.23.248-.407.293-.056.015-.098.082-.154.13-.073-.082-.138-.159-.226-.26l-.034.572-.04.002a63.214 63.214 0 01-.44-3.177c-.021.045-.043.089-.062.134-.194.484-.43.945-.782 1.332a3.878 3.878 0 01-.585.532c-.364.266-.78.35-1.226.259-.198-.04-.397-.08-.595-.125a.777.777 0 01-.538-.439.311.311 0 00-.118-.133c-.136-.074-.223-.236-.407-.226-.02 0-.045-.04-.06-.065-.074-.127-.157-.251-.215-.386-.147-.34-.3-.676-.516-.98a.33.33 0 01-.057-.133c-.032-.172-.036-.352-.091-.517-.09-.267-.07-.544-.105-.816-.03-.242-.052-.485-.068-.728-.007-.116.012-.233.014-.35.003-.16.005-.318.001-.478-.006-.258-.04-.518-.022-.775.077-1.092.148-2.185.26-3.274.123-1.183.285-2.364.621-3.51.103-.35.196-.699.235-1.064.033-.312.17-.598.277-.89.111-.307.221-.613.337-.916a2.64 2.64 0 01.183-.401c.18-.308.37-.612.562-.913a.415.415 0 01.17-.16c.19-.08.39-.145.587-.208.21-.067.43-.108.634-.19.342-.136.65-.078.944.116zm-28.422 2.5c-.076.1-.148.215-.183.336-.097.324-.174.654-.257.982a27.062 27.062 0 00-.814 5.904c-.058 1.998.096 3.98.508 5.938.053.253.114.505.18.755.033.122.078.244.193.335a.973.973 0 00.213-.367c.213-.637.392-1.283.445-1.957.002-.03.02-.057.024-.087.043-.25.084-.758.084-.758l.014-.088s.116-.535.181-.8c.046-.186.055-.385.104-.575.025-.094.062-.2.04-.29-.04-.17.001-.327.02-.49l.092-.86c.017-.154.028-.308.051-.46.017-.102.078-.19.03-.31-.032-.075-.023-.214.027-.266.12-.123.06-.276.112-.407.02-.054-.004-.129.024-.176a.684.684 0 00.086-.281 1.35 1.35 0 00-.002-.22 3.138 3.138 0 01-.003-.388c.01-.178.04-.356.04-.534 0-.438-.011-.875-.022-1.313-.001-.066-.04-.196-.04-.196s-.056-.198-.06-.302c-.02-.672-.037-1.344-.064-2.016a2.69 2.69 0 00-.146-.797c-.09-.253-.277-.382-.53-.431-.137-.027-.264.007-.347.118zm24.73 13.198c-.065.014-.046.071-.035.12.06.25.24.398.443.525l.039-.02-.022-.077a.109.109 0 00-.017-.032 2.984 2.984 0 01-.304-.469c-.034-.018-.073-.053-.103-.047zm-35.66-10.542c-.008.07-.017.136-.023.203-.038.38-.066.76-.114 1.139-.056.433-.148.862-.191 1.296-.053.532-.062 1.07-.107 1.603-.047.551-.115 1.1-.172 1.651-.03.288-.065.576-.08.864a7.22 7.22 0 00-.006.845c.02.307-.055.613.003.92.004.02 0 .054-.014.067-.093.085-.061.16.015.225a1.167 1.167 0 00-.09.586c.042.489.042.489.113.538l-.071.268c.05-.035.069-.042.08-.055.402-.466.833-.907 1.133-1.454.046-.083.127-.146.185-.223.023-.03.046-.076.04-.11-.01-.08.029-.13.077-.18.074-.074.155-.14.223-.22.105-.12.22-.236.298-.372.3-.522.588-1.05.817-1.609.159-.386.287-.78.367-1.191.094-.482.2-.963.301-1.443.067-.32.148-.636.159-.965.008-.25.032-.5.038-.751a.37.37 0 00-.064-.184 6.498 6.498 0 00-.278-.414c-.073-.098-.127-.196-.095-.301-.058-.063-.114-.104-.146-.16a.724.724 0 00-.332-.28 3.5 3.5 0 00-1.46-.344c-.2-.007-.404-.01-.606.05zm-9.936-.193c-.177.112-.159.293-.148.424.022.253-.023.497-.07.732-.094.457-.13.922-.216 1.38a1.047 1.047 0 00-.018.202c-.003.443-.001.887-.006 1.33-.001.153-.027.463-.027.463l.062-.001s.162-.136.28-.125c.013.001.031-.02.04-.034.032-.05.115-.12.115-.12s.148-.082.226-.12a.71.71 0 00.248-.18c.09-.114.091-.255.057-.4-.046-.196-.114-.592-.114-.592l-.123-.355-.043-.118.005-.124.046-.215-.002-.191-.089-.24s.001-.096.044-.149c.003-.004-.062-.38-.083-.563-.013-.11-.04-.218-.06-.327-.041-.221-.082-.442-.124-.677zm38.371.148c-.077.13-.072.259-.164.38-.09.118-.105.297-.142.452-.034.144-.042.295-.084.436-.154.517-.153 1.058-.239 1.586-.06.37-.096.744-.142 1.116-.013.105-.021.21-.034.341.434-.262.828-.528 1.214-.809.194-.141.221-.309.197-.51-.019-.152-.056-.302-.086-.453l-.459-2.316c-.015-.076-.04-.15-.061-.223zm-14.284.337c-.016.047-.024.063-.027.08-.038.21-.056.422-.14.626-.042.098-.008.228-.008.343.113-.208.2-.416.265-.632a.432.432 0 00-.09-.417zm-12.278-3.646c-.109.012-.222.023-.323.062-.28.108-.554.23-.83.347-.164.068-.323.15-.492.2a2.508 2.508 0 00-.622.29l.186.745c.03.125.062.251.095.38.223-.101.442-.198.657-.3.1-.046.202-.093.29-.156.371-.264.74-.531 1.104-.805.086-.065.15-.159.226-.239.056-.06.043-.126.006-.187a3.665 3.665 0 00-.191-.287c-.022-.028-.073-.054-.106-.05zM83.95 50.573l2.313.825c.038.056.084.13.135.201.327.451.584.94.824 1.437l.354.75c.089.19.307.55.307.55l.096.3.179.071.182.473.23.17.698 1.047s.543.799.77 1.222c.14.262.298.878.298.878l.34-.282-.048.366-.098.448-.088.832-.004.469-.23 1.178s-.32 1.354-.487 2.029c-.094.379-.227.747-.323 1.126-.121.473-.355 1.426-.355 1.426l-.043.543-.135.3-.312 1.145-.031.197-.065.18-.433 1.23s-.005.148-.005.225l-.225.126-.354-.181-1.247.127-.472.234c-.233.242-.4.454-.605.619-.744.598-1.396 1.27-1.87 2.112-.192.343-.443.652-.66.982-.267.402-.525.81-.736 1.134l-.149 1.1-.758.975-.236.351.006.236a19.62 19.62 0 01-.421.988.78.78 0 01.044.635c-.222.707-.446 1.413-.81 2.063l-.492-.266.327-1.001-.079-.069-.28.622-.227-.103.426-1.22-.19-.011s-.31.779-.438 1.071c-.018.041-.09.058-.195.121l.342-.78-.224.013-.3.648-.253-.355-.423.148v-.47l.156-.19v-.364c.12-.247.342-.685.342-.685l.13-.65-.432-.151s-.045-.08-.068-.071l-.017.197-.155-.026-.122-.176a1.62 1.62 0 00-.417.136l-.247 1.609-.13.756h-2.024c0-.113.007-.229-.001-.344-.031-.41-.068-.82-.105-1.26-.086.01-.168-.005-.22.027-.2.121-.42.23-.577.395-.253.266-.556.484-.776.776-.327.431-.792.761-.982 1.411l-.05-.414-.357-.056.177-.104v-.228l-.082.06-.146.108c-.024-.21-.046-.414-.071-.617-.004-.027-.027-.052-.04-.078.028-.081.092-.17.078-.243-.066-.34-.011-.706-.228-1.04-.073.018-.153.052-.233.056-.064.003-.13-.03-.195-.047l-.295.442h-.784l-.651.392-.18.009-.155.269-.649.708-.156.072-.163.274-.18.221-.395.672h-.149l-.067-.056-.517-1.884c-.103-.375-.286-1.137-.286-1.137l-.133-.382-.19-.327s-.09-.155-.13-.25c-.116-.287-.193-.638-.193-.638l-.058-.205s-.4-.619-.676-.873c-.119-.109-.31-.317-.39-.404l-.036-.04-.125-.32s-.687-.327-.917-.442a.445.445 0 01-.16-.18l-.29-.04-.817-.397-.248-.22-.231-.012-1.257-.806-.627-.401-.334-.393s-.47-1.398-.674-2.109c-.164-.568-.363-1.13-.538-1.696-.176-.566-.364-1.13-.55-1.691l-.557-1.79-.153-.307s-.35-1.144-.628-1.667c-.268-.503-.37-1.075-.702-1.549-.052-.074-.135-.256-.135-.256l-.038-.229s-.114-1.064-.101-1.6c.007-.296.194-.747.256-.889l.02-.044.415-.352s.488-.377.745-.543c.379-.245.76-.484 1.202-.614.114-.034.34-.07.34-.07s.239.004.359 0c.86-.03 1.72-.057 2.58-.095.187-.008.372-.067.56-.083.189-.017.378-.061.56-.077.602-.051 1.813-.093 1.813-.093l.9.15s.056.013.085.015c.426.031.852.058 1.277.094.247.021.492.061.74.087l.742.077.757.112-.592.574.174.086-.421.42.695-.112 1.588-.597.357-.024.305.172-.497.766-.664.724.794-.166.325.042c.183-.114.566-.315.566-.315s.28-.211.429-.305c.661-.42 1.285-.891 1.892-1.385.046-.038 1.02-.96 1.47-1.373.25-.232.5-.465.766-.676.229-.18.781-.532.781-.532l.27-.07 1.257-.674.445-.316.89-.986s-.178.617-.333.822l.01-.004c.192-.098 3.289-1.677 4.88-2.476zM70.73 70.237l-.092.003c-.141.252-.266.515-.43.75a3.24 3.24 0 00-.18.323l-.027.052-.072.257-.15.386-.244.15-.252.167-.173.184s-.16.188-.21.296c-.139.3-.232.622-.331.94-.069.22-.173.671-.173.671l.316.317.217-.063s.199.129.279.163a.767.767 0 01.076.044l.127.083s.386.168.58.249c.32.132.64.256.986.394.05-.067.113-.115.114-.164a6.743 6.743 0 00-.025-.509l.13.039.283.244.262.262.13.084c.044.003.092-.017.156-.05l-1.297-5.272zm2.443.169l-.243.459.1.276-.017.298-.011.324.016.377.43 1.041c.09.747.152 1.56.715 2.2l1.975-1.596.27-1.038c-.204-.178-.396-.361-.604-.521-.137-.105-.417-.281-.417-.281l-.119-.19-1.22-.719-.64-.525s-.168-.077-.235-.105zm-20.612-7.295c.152.589.723 1.613.723 1.613l-.223-.045s.439 1.213.664 1.668c.187.38.398.747.59 1.125.079.155.13.323.204.48.262.567.532 1.13.792 1.699.212.463.412.931.622 1.395.077.17.183.329.252.502.165.415.496 1.32.496 1.32l-2.34-1.023s-.397-.422-.617-.609c-.61-.519-.87-1.225-1.12-1.947-.146-.424-.321-.84-.458-1.267-.13-.412-.313-.807-.363-1.25-.022-.197-.044-.574-.044-.574l.147.052-.129-.376-.042-.11s-.228-.545-.177-.817c.047-.026.154.013.154.013l-.092-.403.323-.486zm7.971-3.4l-.597.663.045.08-.088-.016-.505.606s-.12.404-.126.589c-.005.181-.055.534-.055.534l-.132.275s.02.231-.001.308c-.043.154-.09.308-.138.46-.03.094-.053.214-.02.3.159.42.21.868.41 1.282.295.613.508 1.265.765 1.897.262.646.5 1.302.865 1.903.094.156.136.344.203.517.141.365.522 1.046.522 1.046l.247.348.517.011.35-.057.145-.048.234-.069c.078-.011.157-.013.237-.013h.54l.263-.203 1.284.115c.043-.074.077-.167.077-.167l.368.036.036.056.179.024s.37.053.561.024c.034-.065.069-.113.085-.168.122-.415.265-.827.353-1.25.07-.343.198-.67.267-1.007.11-.54.239-1.075.413-1.597.046-.136.06-.248.003-.38-.139-.32-.388-.968-.388-.968l-.376-.431-.281-.455-.199.016.07-.177s-.849-.66-1.072-.88c-.484-.472-.934-.981-1.394-1.48-.303-.328-.674-.571-1.016-.851-.54-.442-1.135-.695-1.831-.733-.27-.014-.82-.14-.82-.14zm21.209-.655c-.585-.018-1.213-.212-1.881-.072-.416.248-.842.538-1.193.923-.108.12-.188.264-.297.382-.433.473-1.309 1.408-1.309 1.408s-.107.105-.155.163c-.304.361-.583.748-.915 1.08-.548.55-1.048 1.15-1.67 1.623-.065.049-.133.223-.133.223l-.168 1.121.389-.187s.078.488.127.715c.089.41.136.84.297 1.222.162.388.532 1.474.532 1.474l.125-.155-.039.354.119.303 3.15.587.232-.19.32.276.355.095.073-.272 3.272-1.908.247-.775 1.071-.826c.214-.409.396-.832.496-1.294.15-.694.365-1.371.474-2.079.066-.427.234-1.284.234-1.284l.09-.272.21-.203-.13-1.154-.121-.1c-.689-.16-1.333-.461-2.041-.582-.589-.1-1.147-.38-1.761-.596zm13.242-.284l.826.227s.818.177 1.174.428c.142.1.444.277.444.277s.387.392.507.662c.195.439.357.886.492 1.345a.51.51 0 01.001.263c-.09.34-.166 1.049-.166 1.049l-.18.352c.056.594-.232 1.123-.383 1.682-.2.746-.618 1.373-1.056 2.001-.261.376-.582.7-.844 1.072-.11.155-.321.248-.5.341-.157.081-.746.54-.746.54l-.106-.085-.078.105-.44.337-.128-.03-.238.232-.383.14s-.68.223-.94.26c-.068.01-.13.06-.226.106l-.023-.126-.042-.236-.115.05c-.01-.021-.038-.05-.033-.068.146-.5.299-.996.44-1.497.114-.403.217-.81.318-1.217.08-.324.221-.975.221-.975l.188-1.03.266-1.051s.165-.676.275-1.004c.105-.316.184-.642.297-.952.16-.442.307-1.354.307-1.354l.279-.973.301-.217s.04-.045.057-.07v-.096l-.159-.043-.13-.036.523-.409zm-24.97-34.09c.213.545.444 1.093.64 1.654.369 1.053.729 2.109 1.155 3.142.215.521.375 1.065.567 1.596.253.695.516 1.386.771 2.08.255.693.504 1.389.757 2.083l.361.98c.165.448.318.902.496 1.345.156.39.292.79.432 1.184.164.464.367.914.511 1.386.059.192.14.378.207.558-.34.483-.624.97-.988 1.383-.352.4-.702.816-1.16 1.11-.088.056-.155.142-.229.217-.354.358-.74.678-1.145.978-.249.184-.467.41-.707.607-.363.299-.729.596-1.103.881-.372.284-.756.552-1.135.828a4.976 4.976 0 01-.783.46c-.272.13-.541.278-.816.407-.684.322-2.072.916-2.072.916l-.447.182-.81.183-.249.3c-.663.25-1.333.475-2.005.692-.549.176-1.112.306-1.669.455-.177.047-.355.088-.534.126l-1.076.216c-.479.102-.963.203-1.448.284-.188.031-.386.005-.59.005-.149-.272-.497-.775-.497-.775l-.002-.294-.382-.279s-.835-1.07-1.236-1.617c-.144-.195-.22-.438-.338-.654a9.182 9.182 0 00-1.158-1.656c-.143-.164-.247-.362-.377-.538-.2-.272-.408-.54-.612-.809a.318.318 0 00-.064-.063c-.538-.37-.81-.943-1.13-1.483-.431-.73-.817-1.484-1.264-2.207-.393-.636-.824-1.243-1.254-1.85-.264-.373-.57-.716-.864-1.067-.413-.494-.831-.984-1.303-1.541.448.165.825.298 1.197.443.903.352 1.798.721 2.71 1.047.654.233 1.283.534 1.927.794.617.25 1.238.488 1.859.729.593.23 1.187.456 1.781.683l2.227.854c.013.005.032-.002.043.005.284.163.572.312.941.208.098-.17.188-.38.038-.62-.028-.045-.019-.116-.02-.174-.003-1.045-.147-2.086-.094-3.133.022-.435-.003-.872.005-1.308.01-.563-.028-1.119-.178-1.664-.008-.028-.002-.06-.003-.09-.03-.563-.044-1.127-.095-1.689-.044-.48-.107-.96-.206-1.43-.057-.268-.09-.517-.002-.778.023-.068.024-.144.033-.216l.088-.724c.187.192.352.374.531.541.195.181.42.332.6.526.209.224.492.351.666.634.148.24.426.403.655.591.444.364.9.711 1.337 1.082.357.302.695.627 1.037.945.437.405.87.815 1.308 1.218.074.068.172.11.254.17.53.393 1.084.753 1.573 1.205.344.317.744.57 1.11.864.152.121.277.274.418.41.072.068.151.127.261.219.024-.098.048-.15.047-.203a7.82 7.82 0 01.178-1.664c.012-.058 0-.12.004-.18.03-.458.03-.92.098-1.373.085-.583.168-1.164.176-1.755.003-.187.061-.373.083-.561.021-.174-.038-.357.084-.52.03-.038.004-.117.008-.176.03-.458.033-.92.097-1.373.086-.613.181-1.223.174-1.845.183-.354-.005-.768.178-1.123-.042-.592.094-1.193-.086-1.78-.016-.052.003-.115.007-.195z" fill="#FFF"/></g><path fill="#000" d="M12 0h10v2H12zm136 0h10v2h-10zM80 0h10v2H80z"/></g></svg>