<svg xmlns="http://www.w3.org/2000/svg" viewBox="0 0 48 48"><path d="M8.745 27.09L4 30.18l5.751-.15c3.158-.081 4.875 2.166 3.815 5l-1.927 5.15 4.56-3.337c2.505-1.83 5.282-.971 6.177 1.911L24 44l1.624-5.246c.894-2.882 3.672-3.742 6.177-1.91l4.559 3.337-1.927-5.15c-1.06-2.835.657-5.082 3.815-5l5.751.15-4.745-3.092c-2.605-1.699-2.605-4.478.001-6.177L44 17.82l-5.751.15c-3.159.083-4.876-2.166-3.815-5l1.928-5.15-4.56 3.338c-2.504 1.83-5.282.97-6.176-1.911L24 4l-1.624 5.246c-.895 2.882-3.672 3.741-6.177 1.912l-4.56-3.338 1.927 5.15c1.06 2.834-.657 5.082-3.815 5L4 17.82l4.745 3.092c2.606 1.699 2.606 4.478 0 6.178zM24 17c3.86 0 7 3.14 7 7 0 3.859-3.14 7-7 7s-7-3.14-7-7 3.14-7 7-7z" fill="#092031" stroke="#1F618E" stroke-width="2"/></svg>