<svg xmlns="http://www.w3.org/2000/svg" xmlns:xlink="http://www.w3.org/1999/xlink" viewBox="0 0 58 26"><defs><path id="a" d="M1 0h56v25H1z"/></defs><g transform="translate(0 -1)" fill="none" fill-rule="evenodd"><rect fill="#1F618E" y="25" width="58" height="2" rx="1"/><path d="M46 8l4-6 4 6h-3v4h-2V8h-3z" fill="#1F618E"/><mask id="b" fill="#fff"><use xlink:href="#a"/></mask><path d="M13.745 28.09L9 31.18l5.751-.15c3.158-.081 4.875 2.166 3.815 5l-1.927 5.15 4.56-3.337c2.505-1.83 5.282-.971 6.177 1.911L29 45l1.624-5.246c.894-2.882 3.672-3.742 6.177-1.91l4.559 3.337-1.927-5.15c-1.06-2.835.657-5.082 3.815-5l5.751.15-4.745-3.092c-2.605-1.699-2.605-4.478.001-6.177L49 18.82l-5.751.15c-3.159.083-4.876-2.166-3.815-5l1.928-5.15-4.56 3.338c-2.504 1.83-5.282.97-6.176-1.911L29 5l-1.624 5.246c-.895 2.882-3.672 3.741-6.177 1.912l-4.56-3.338 1.927 5.15c1.06 2.834-.657 5.082-3.815 5L9 18.82l4.745 3.092c2.606 1.699 2.606 4.478 0 6.178zM29 18c3.86 0 7 3.14 7 7 0 3.859-3.14 7-7 7s-7-3.14-7-7 3.14-7 7-7z" stroke="#1F618E" stroke-width="2" fill="#0B2F48" fill-rule="nonzero" mask="url(#b)"/></g></svg>