<svg xmlns:xlink="http://www.w3.org/1999/xlink" xmlns="http://www.w3.org/2000/svg" aria-hidden="true" width="52"  height="50" ><defs><symbol id="youtube" viewBox="0 0 52 50">
        <path d="M21.309 31.03V18.734l11.809 6.147-11.81 6.147zM47.19 16.631s-.485-3.073-1.78-4.367c-1.617-1.78-3.558-1.78-4.367-1.78C34.897 10 25.838 10 25.838 10s-9.22 0-15.206.485c-.808.162-2.75.162-4.367 1.78-1.294 1.294-1.78 4.367-1.78 4.367S4 20.192 4 23.75v3.235c0 3.56.485 7.118.485 7.118s.486 3.073 1.78 4.368c1.617 1.779 3.882 1.617 4.853 1.94 3.558.324 14.882.486 14.882.486s9.22 0 15.368-.485c.808-.162 2.75-.162 4.367-1.78 1.294-1.294 1.78-4.367 1.78-4.367s.485-3.56.485-7.118v-3.235c-.324-3.72-.809-7.28-.809-7.28z" fill-rule="nonzero"></path>
    </symbol></defs><use xlink:href="#youtube" fill="#DAC9AC"></use></svg>