<svg xmlns:xlink="http://www.w3.org/1999/xlink" xmlns="http://www.w3.org/2000/svg" aria-hidden="true" class="c-corner-ornaments-corner c-corner-ornaments-corner-tl" width="60"  height="60" ><defs><symbol id="corner-ornament" viewBox="0 0 60 60">
        <path d="M10.407 19.116h2.862V16.25h-2.862v2.865zm5.861-5.871h2.873V10.39h-2.873v2.855zm-5.873.003h2.868v-2.865h-2.868v2.865zM4.544 7.392H7.4V4.523H4.544v2.869zm55.419-3.827c-.183 1.63-2.151 2.953-3.107 2.935.46-.753.596-1.5-.116-2.151a1.045 1.045 0 00-1.016-.226l-.205 1.109a3.715 3.715 0 01-.753 1.653c-.624.786-1.472 1.16-2.45 1.227a4.728 4.728 0 01-2.872-.714c-.067-.041-.144-.066-.178-.082-.344.426-.654.854-1.01 1.24a4.012 4.012 0 01-1.678 1.08c-.446.153-.785.439-.929.914-.133.444.084.747.548.79.657.061 1.224-.15 1.742-.532l.186-.136c.317.263.244.62.178.917-.19.856-1.126 1.951-2.23 1.85-.745-.069-1.165-.556-1.542-1.116-.05-.074-.09-.157-.145-.256-.826-.156-1.599-.431-2.03-1.252-.434-.83-.223-1.614.142-2.296-.285-.54-.546-1.02-.788-1.508-.043-.088-.006-.215-.006-.342.94-.358 1.673-.973 2.337-1.706.518-.573 1.244-.607 1.816-.172.35.266.384.634.086.952-.408.436-.753.908-.907 1.5-.126.482.152.788.627.668.616-.156 1.014-.595 1.342-1.094.627-.954.396-1.826-.22-2.6-1.018-1.28-2.57-1.542-4.008-.921-.71.306-1.289.753-1.73 1.396-.245.36-.246.76-.268 1.153-.027.478.022.96.029 1.441.026 1.891-.202 3.732-1.26 5.359-.74 1.137-1.705 2.026-2.991 2.56a7.39 7.39 0 01-3.672.529l-1.083-.114c.21 1.083.247 2.122-.86 2.778-1.045.619-2.012.435-2.896-.333a3.412 3.412 0 01-1.57.22c-.932-.088-1.621-.878-1.758-1.647-.206-1.157.263-2.045 1.087-2.798.012-.011.038-.007.072-.011.312.351.61.728.952 1.06.313.304.638.604 1.098.704.69.15 1.258-.4 1.067-1.07-.189-.66-.605-1.196-1.015-1.729-.372-.484-.773-.947-1.133-1.44-.678-.93-1.031-1.999-1.151-3.125-.12-1.114-.135-2.24-.194-3.36-.006-.108 0-.216 0-.35h-9.232v2.882h5.86v8.804h-5.875v5.901H7.456v-5.864H4.548v9.194c.059.014.115.037.172.038.854.023 1.71.018 2.561.07 1.512.09 2.96.429 4.217 1.324.668.476 1.277 1.034 1.942 1.514.328.236.712.409 1.092.555.297.116.642.105.858-.173.24-.308.365-.664.18-1.066-.332-.72-.931-1.195-1.517-1.683-.046-.039-.095-.072-.14-.11-.015-.013-.022-.035-.047-.078.268-.445.692-.717 1.155-.934.855-.4 1.702-.373 2.49.154.755.506.908 1.284.814 2.127-.032.284-.144.559-.222.85.8.885.95 1.882.326 2.911-.645 1.065-1.679 1.052-2.783.816.042.302.083.573.115.845.198 1.683-.02 3.308-.93 4.751-1.132 1.798-2.81 2.83-4.901 3.226-1.32.25-2.645.178-3.968.16-.896-.012-1.556.364-2.064 1.033-.583.767-.928 1.635-.893 2.623.047 1.345 1.122 2.636 2.324 2.896.695.15 1.305-.109 1.835-.54.335-.272.648-.591.752-1.028.043-.183.034-.467-.078-.574-.127-.123-.411-.171-.598-.127-.535.127-.985.44-1.381.817-.198.188-.395.373-.684.263a.909.909 0 01-.584-.673c-.143-.576.021-1.038.445-1.439.57-.539 1.123-1.096 1.46-1.822.08-.17.146-.347.22-.526.71.046 1.233.426 1.742.865.77-.374 1.563-.617 2.384-.194.806.416 1.103 1.176 1.245 1.967.306.24.604.43.852.673.568.556.763 1.257.33 2.021-.46.807-1.118 1.335-2.097 1.324-.155-.002-.31-.087-.434-.124.206-.441.421-.824.56-1.234.083-.243.068-.528.056-.792-.013-.316-.157-.558-.526-.617-.554.124-.962.466-1.162 1.006-.428 1.155-1.178 2.013-2.262 2.588a.182.182 0 00-.045.035c.208.508.449.992.608 1.501.302.969.285 1.947-.132 2.882-.546 1.225-1.593 1.775-2.848 2.011-.269.05-.542.08-.815.12-.044.516-.026.951.424 1.247.66.433 1.289.322 1.993-.148-.071.288-.096.508-.179.704-.444 1.06-1.159 1.868-2.237 2.318-.695.29-1.39.067-1.814-.556-.395-.58-.499-1.212-.382-1.878-.336-.25-.684-.47-.984-.743-.603-.55-.697-1.255-.51-2.013.168-.678.241-1.356.134-2.054-.168-1.094.841-2.355 1.954-2.466.465-.047 1.148.486 1.213.946.036.247-.076.425-.262.572-.205.161-.414.318-.607.491-.215.194-.384.422-.313.736.077.341.277.584.63.654.945.186 2.078-.22 2.481-1.109.29-.638.131-1.249-.213-1.802-.477-.766-1.152-1.347-1.949-1.754-.992-.506-1.604-1.335-2.1-2.282-.422-.807-.652-1.678-.585-2.578.052-.698.265-1.385.405-2.073-.3-.422-.678-.867-.961-1.366-.574-1.01-.348-2.419.655-3.013.534-.316 1.132-.302 1.723-.151.218.055.433.124.687.198-.287.421-.552.782-.784 1.162-.129.211-.23.45-.292.688-.12.45.26.855.75.801.653-.072 1.174-.42 1.664-.837-.714-2.076-.917-4.138-.044-6.195-.66-.357-1.285-.235-1.539.424-.286.744-.8 1.256-1.567 1.494a.834.834 0 01-.943-.345c-.386-.59-.294-1.198.003-1.773.223-.433.48-.865.802-1.227a22.749 22.749 0 011.783-1.791c.356-.321.809-.525 1.324-.44.646.105.987.56 1.243 1.107l.134.287c.493-.07.955-.16 1.42-.197 1.17-.095 2.292.05 3.22.854.566.49.855 1.147.906 1.88.101 1.469-.36 2.727-1.598 3.587-.36.25-.844.392-1.286.436-.703.071-1.154-.598-.915-1.33.115-.35.322-.689.553-.98.3-.38.43-.69.275-.938-.182-.292-.659-.476-1.051-.322-.287.113-.606.287-.776.529-.631.897-.835 2.403-.2 3.424.556.894 1.446 1.115 2.413 1.028 1.177-.106 2.15-.669 2.966-1.507a5.129 5.129 0 001.471-3.148c.149-1.425-.332-2.614-1.298-3.602-.884-.905-1.994-1.47-3.206-1.832-1.474-.439-2.989-.45-4.505-.42-.891.017-1.781.07-2.699.108V13.278H7.41v-2.914H1.607v-8.83h8.765v5.838h2.921V1.558h15.204c0 .313.007.59-.002.868-.034 1.104-.115 2.208-.1 3.31.015 1.192.163 2.374.585 3.504.431 1.154 1.028 2.206 1.978 3.01.677.575 1.463.943 2.364 1.025 1.98.18 3.519-.642 4.688-2.166.729-.952 1.073-2.056.845-3.283a2.143 2.143 0 00-1.795-1.708c-.948-.141-1.84-.035-2.644.526-.45.314-.643 1.015-.415 1.5.175.373.527.484.873.253.224-.15.421-.339.638-.5.374-.281.805-.352 1.258-.3.535.063.86.652.71 1.284-.266 1.124-1.023 1.816-2.041 2.244-.754.316-1.548.441-2.356.23-1.305-.342-2.042-1.216-2.259-2.527-.147-.889-.094-1.78.078-2.663.018-.096.025-.194.038-.304-.171-.08-.326-.147-.476-.222-.958-.483-1.232-1.412-.604-2.283.384-.533.856-1.013 1.336-1.465.56-.528 1.138-1.058 1.876-1.334.304-.114.637-.201.958-.205.974-.01 1.423.807.906 1.637-.3.482-.695.87-1.242 1.088-.693.276-.847.77-.482 1.555 2.052-.888 4.11-.69 6.175.049.433-.474.769-.997.844-1.632.059-.492-.26-.997-.926-.743-.452.172-.856.47-1.276.722-.135.08-.253.19-.382.29C37.02 2.106 37.092.402 38.935 0h.846c.878.165 1.535.698 2.127 1.33.113-.044.196-.076.278-.11.812-.337 1.656-.483 2.53-.371a5.572 5.572 0 012.48.929c.588.403 1.17.813 1.512 1.465.41.78.914 1.478 1.608 2.036.632.509 1.625.678 2.225.334.75-.43 1.245-1.717.951-2.498-.22-.588-.85-.747-1.291-.302-.169.17-.307.37-.476.541-.162.164-.345.308-.478.424-.997-.234-1.29-1.008-1.041-1.683.304-.825 1.316-1.676 2.466-1.5.672.102 1.319.038 1.957-.162.836-.26 1.755.082 2.197.713.188.269.37.542.55.807 1.124-.202 2.414.297 2.587 1.43v.182z" fill-rule="evenodd"></path>
    </symbol></defs><use xlink:href="#corner-ornament" fill="#D8D1C4"></use></svg>