<svg xmlns="http://www.w3.org/2000/svg" viewBox="0 0 98 82"><defs><filter x="-21.2%" y="-26.6%" width="142.5%" height="153.1%" filterUnits="objectBoundingBox" id="a"><feOffset in="SourceAlpha" result="shadowOffsetOuter1"/><feGaussianBlur stdDeviation="4" in="shadowOffsetOuter1" result="shadowBlurOuter1"/><feColorMatrix values="0 0 0 0 0 0 0 0 0 0.537254902 0 0 0 0 0.894117647 0 0 0 1 0" in="shadowBlurOuter1" result="shadowMatrixOuter1"/><feMerge><feMergeNode in="shadowMatrixOuter1"/><feMergeNode in="SourceGraphic"/></feMerge></filter></defs><g filter="url(#a)" transform="translate(9 9)" stroke="#00D4ED" stroke-width="2" fill="none" stroke-linejoin="round"><path d="M63.193 64C73.95 64 80 55.83 80 46.979 80 38.809 74.958 32 66.555 32c-2.017 0-4.37.34-6.05 1.702-.337-1.362-.673-3.745-.673-5.787 0-11.234 4.034-20.085 11.765-26.213L69.244 0C52.1 11.234 44.706 28.596 44.706 44.255 44.706 58.213 54.454 64 63.193 64zm-44.706 0c10.757 0 16.807-8.17 16.807-17.021C35.294 38.809 30.252 32 21.85 32c-2.017 0-4.37.34-6.05 1.702-.337-1.362-.673-3.745-.673-5.787 0-11.234 4.034-20.085 11.765-26.213L24.538 0C7.395 11.234 0 28.596 0 44.255 0 58.213 9.748 64 18.487 64z"/></g></svg>