<svg xmlns="http://www.w3.org/2000/svg" width="109" height="120"><style>@keyframes a0_t{0%{transform:translate(87.356px,54.329px) rotate(10deg) translate(-87.356px,-54.329px)}5.859%{transform:translate(87.356px,54.329px) rotate(10deg) translate(-87.356px,-54.329px);animation-timing-function:cubic-bezier(.455,.03,.515,.955)}57.019%{transform:translate(87.356px,54.329px) rotate(-10deg) translate(-87.356px,-54.329px);animation-timing-function:cubic-bezier(.455,.03,.515,.955)}}@keyframes a1_t{0%{transform:translate(21.602px,54.329px) rotate(10deg) translate(-21.602px,-54.329px);animation-timing-function:cubic-bezier(.455,.03,.515,.955)}43.356%{transform:translate(21.602px,54.329px) rotate(-10deg) translate(-21.602px,-54.329px);animation-timing-function:cubic-bezier(.455,.03,.515,.955)}93.743%{transform:translate(21.602px,54.329px) rotate(10deg) translate(-21.602px,-54.329px)}}</style><path d="M65.855.225c2.143.063 4.283.248 6.425.368.587.033 1.18.051 1.767.014.94-.06 1.299.296 1.111 1.259-.425 2.18-.862 4.359-1.333 6.53-.201.929-.499 1.837-.793 2.901.981.187 1.992.359 2.995.248.332-.037.731-.517.892-.885.577-1.321 1.065-2.681 1.588-4.025.201-.516.364-1.052.617-1.54.421-.811 1.108-1.092 2.032-1.019 1.694.133 3.395.182 5.093.263.259.012.52-.006.779.009 1.344.079 1.713.619 1.229 1.901-.405 1.071-.907 2.106-1.324 3.172-.397 1.016-.741 2.053-1.139 3.164 1.801.732 3.449 1.358 5.059 2.069 1.547.684 3.347.864 4.637 2.089-1.244 2.206-3.119 3.925-3.146 6.61 1.469.467 2.882.584 4.243-.102.431-.218.786-.664 1.066-1.08.262-.391.386-.877.56-1.325.866-2.24 1.472-4.58 2.802-6.637.445-.687.623-1.562.848-2.372.24-.865.512-1.053 1.443-.899 1.494.246 2.991.467 4.489.688.693.102 1.038.376 1.002 1.08a7.071 7.071 0 01-.401 1.941c-.973 2.796-2.011 5.57-2.973 8.369-.396 1.152-.645 2.355-.99 3.526-.241.814-.526 1.616-.804 2.418-.174.505-.594.621-1.068.623-.778.004-1.572-.092-2.331.026-1.348.211-2.676.551-4.082.852-.074 3.892.3 7.705-.455 11.671.789.167 1.436.433 2.073.413 1.656-.053 3.221.437 4.829.655.913.124 1.834.193 2.753.27.798.066 1.085.33 1.01 1.114a5.337 5.337 0 01-.355 1.392c-.945 2.452-1.999 4.859-2.563 7.451-.3 1.376-.614 1.524-2.047 1.485-1.703-.046-3.404-.149-5.106-.22-.397-.017-.796-.003-1.346-.003-8.008 0-10.565 7.142-10.545 6.44.002-.061-.072-.124-.169-.28l-4.277 1.645c-1.726 3.316-2.425 7.204-4.633 10.538-1.54.062-2.563 1.32-3.875 2.04-2.253 1.236-3.373 3.221-3.859 5.66-.208 1.045-.32 1.125-1.406 1.169-.666.028-1.334.014-2.002.008-1.279-.011-1.279-.014-2.472-.869.021-.404.081-.845.058-1.282-.032-.609.061-1.284-.763-1.542-.944-.295-1.83-.141-2.296.584-.271.421-.397.942-.546 1.431-.083.275-.078.575-.127.979h-7.231c-.048-.414-.032-.754-.135-1.055-.175-.516-.345-1.065-.659-1.496-.461-.632-1.4-.731-2.246-.418-.743.274-.657.912-.688 1.484-.024.438.037.88.057 1.277-.681.773-1.516.948-2.44.914-.741-.028-1.482-.021-2.224-.021-.695.001-1.099-.293-1.195-1.023-.166-1.271-.7-2.402-1.345-3.503-.367-.626-.799-1.13-1.411-1.522-.967-.619-1.881-1.322-2.859-1.924-.642-.396-1.355-.678-2.037-1.011l-.219.203c-.753-1.642-1.546-3.267-2.247-4.93-.717-1.706-1.332-3.454-2.024-5.171-.112-.279-.347-.602-.607-.712-1.121-.478-2.271-.888-3.413-1.314-.165-.061-.346-.078-.621-.137-.033.351.039 1.173-.08.91-3.854-8.507-3.854-7.082-10.52-7.067-.552 0-.984-.015-1.416.003-1.702.069-3.403.172-5.105.216-1.349.034-1.561-.151-1.985-1.445-.024-.071-.048-.141-.061-.214-.446-2.427-1.464-4.657-2.364-6.929-.217-.547-.4-1.125-.477-1.705-.105-.785.2-1.151.967-1.134 1.839.042 3.588-.463 5.371-.774.615-.107 1.251-.098 1.878-.132.81-.044 1.611-.119 2.177-.469l-.271-11.565c-1.616-.524-3.338-1.026-5.18-.983-1.91.044-1.911.037-2.635-1.711-.085-.205-.174-.41-.237-.622-.883-2.98-1.741-5.968-2.654-8.939-.282-.916-.739-1.778-1.069-2.681-.303-.832-.639-1.67-.787-2.535-.173-1.02.259-1.358 1.292-1.472a49.995 49.995 0 003.94-.614c1.255-.242 1.472-.081 1.742 1.14.164.744.417 1.519.831 2.148 1.307 1.984 1.885 4.258 2.727 6.427.134.346.256.696.382 1.044.377 1.032 1.132 1.653 2.185 1.848 1.098.202 2.203.194 3.343-.262.004-2.644-1.876-4.358-3.055-6.434.077-.604.608-.768 1.08-.951 2.519-.981 5.047-1.941 7.57-2.911.239-.092.471-.199.751-.318-.122-1.082-.226-2.111-.757-3.095-.595-1.101-1.071-2.273-1.517-3.445-.462-1.217-.081-1.773 1.212-1.824 1.148-.045 2.299.009 3.448-.025a16.69 16.69 0 002.093-.198c1.397-.217 2.079.118 2.651 1.414.163.37.237.779.383 1.158a214.332 214.332 0 001.59 4.027c.29.706.83.99 1.607.862.747-.123 1.504-.189 2.31-.287-1.095-3.069-1.456-6.161-2.109-9.187C33.453.806 33.713.607 35.072.653c.992.034 1.99-.147 2.988-.2 1.698-.092 3.398-.202 5.098-.219.939-.009 1.182.238 1.361 1.006.73 3.135 1.464 6.27 2.167 9.411.283 1.261.493 2.539.727 3.767 1.119.662 2.267.183 3.513.37.082.472.134.964.257 1.438.201.779.42 1.556.697 2.31.072.196.367.376.595.44a7.018 7.018 0 003.84.007c.258-.072.595-.286.669-.509.262-.79.423-1.613.626-2.423.105-.417.218-.833.356-1.361h3.356c.236-1.117.437-2.124.663-3.124l.912-3.892c.459-2.021.927-4.04 1.348-6.069.236-1.136.409-1.415 1.61-1.38zM30.553 57.669c-.118.374-.279.638-.267.895.035.806.044 1.631.231 2.409.37 1.548.797 3.087 1.302 4.595.59 1.759.921 3.656 2.369 5.019.1.094.126.265.192.398.382.782.765 1.392 1.698 1.848 1.813.885 3.425 2.183 5.126 3.302.478.315.622.752.69 1.309.127 1.053.281 2.115.809 3.124.651.057 1.275.172 1.894.151.833-.029 1.094-.326 1.205-1.148.064-.478.07-.97.201-1.428.082-.287.3-.679.539-.752 1.239-.377 2.501-.722 3.819-.513.791.126 1.137.516 1.251 1.337.054.391.063.789.099 1.278 1.858-.001 3.647.057 5.418-.026.165-2.431.841-2.955 3.134-2.588.109.017.216.052.323.078 2.498.601 2.122.19 2.444 2.633.104.785.338 1.075 1.113 1.116.654.034 1.316-.08 1.938-.126.127-.202.236-.316.277-.45.129-.424.336-.858.328-1.285-.036-1.965 1.075-3.108 2.675-3.951.391-.206.743-.487 1.119-.725.783-.493 1.516-1.144 2.37-1.42.791-.255 1.103-.737 1.433-1.373.246-.472.631-.871.947-1.308.129-.178.274-.357.352-.558.454-1.172.941-2.335 1.319-3.532a77.567 77.567 0 001.417-5.025c.189-.777.191-1.604.224-2.41.01-.253-.157-.513-.269-.849l-1.598 1.136c-.079.215-.194.527-.306.84l-.52 1.446c-.864 2.411-1.688 4.834-2.155 7.365-.152.821-.556 1.438-1.413 1.669a153.83 153.83 0 01-.524-.337l-.001.229c-.447.141-.885.348-1.342.407-.547.07-1.11.006-1.666.014-1.444.02-2.887.039-4.33.077-.96.025-1.922.159-2.877.112-2.215-.109-4.423-.372-6.639-.429-1.733-.044-3.472.126-5.208.207-1.55.072-3.1.202-4.651.215-1.217.01-2.433-.142-3.651-.181a47.201 47.201 0 00-2.89.009c-.585.017-1.093-.077-1.378-.7l-.582.385c-.849-.264-1.248-.875-1.417-1.695a19.241 19.241 0 00-.428-1.726c-.815-2.687-1.644-5.371-2.468-8.056l-.179.084-1.498-1.096zm28.76 7.996l-.25 2.865 6.801.376.439-2.852c-1.533-.702-5.881-.915-6.99-.389zm-16.792.459l.462 2.782 6.817-.387c-.078-.614-.149-1.081-.193-1.551-.044-.465-.059-.933-.084-1.353-1.42-.496-5.846-.183-7.002.509zm14.442-.193h-5.072v2.541c1.743.19 3.36.231 5.072-.032v-2.509zm12.016-1.032l-.309 1.761.201.052.443-1.742-.335-.071zm-29.149.012l-.304.074.452 1.708.188-.048-.336-1.734zm9.901-3.9c.188 1.167.295 2.106.52 3.015.053.215.497.449.778.473 2.244.192 4.494.171 6.738 0 .303-.024.789-.309.836-.544.179-.884.514-1.77.324-2.85-.401.088-.818.063-1.06.256-.597.479-1.231.47-1.895.317-.993-.228-1.977-.258-2.972-.025-.74.174-1.452.225-2.098-.341-.189-.166-.539-.148-1.171-.301zm-11.249.596c.223 1.548.325 1.654 1.622 1.877.326.056.646.152.968.232 1.426.357 2.755-.013 4.202-.505l-.412-2.071c-2.246-.079-4.313.154-6.38.467zm25.485-.572l-.392 2.18c.307.118.472.191.643.245 1.52.481 3.024.447 4.574.036 1.183-.313 1.438-.489 1.504-1.986l-6.329-.475zm-28.088.513c.011.87.722.561 1.153.793-.055-.868-.055-.868-1.153-.793zm37.013-.082c-.523.041-1.139-.187-1.172.692 1.021.082 1.021.082 1.172-.692zm-10.709-.256l-.078.595.259.034c.052-.089.17-.215.145-.259-.08-.14-.213-.249-.326-.37zm-15.714-.005c-.057.191-.096.388-.14.584l.373.038c-.011-.204-.018-.408-.041-.611-.001-.012-.188-.026-.192-.011zM16.764 43.081c-4.246.406-8.409 1.101-12.634 1.857l2.948 8.464c.264.026.521.087.773.072 3.211-.193 6.421-.412 9.633-.591a33.17 33.17 0 013.106 0c.355.013.821.093 1.032.327a13.73 13.73 0 011.63 2.175c.333.564.502 1.233.7 1.868.577 1.854 2.181 2.307 3.803 2.837-.162-.832-.45-1.57-.746-2.305-.178-.441-.461-.861-.542-1.318-.51-2.876-1.551-5.561-2.865-8.148-.444-.874-.963-1.723-1.782-2.222l-1.302.713c-.11-.832-.575-.96-1.218-.886-.499.057-1.009.012-1.56.012-.165-.51-.295-.929-.437-1.344-.154-.45-.319-.896-.539-1.511zm75.224.214l-.887 2.499c-1.015.571-2.39-.639-2.885.992l-1.337-.781c-.528.708-1.159 1.35-1.552 2.116-1.322 2.578-2.392 5.255-2.927 8.127-.105.563-.427 1.085-.639 1.63-.274.705-.537 1.415-.835 2.2 1.929-.218 3.419-1.374 3.987-2.931.426-1.166.819-2.289 1.726-3.28.669-.732 1.298-1.038 2.155-1.027 1.292.017 2.584.117 3.875.195 1.956.119 3.911.272 5.868.366 1.066.05 2.136.008 3.212.008l2.908-8.353c-1.373-.578-11.445-1.993-12.669-1.761zM39.45 47.11c-2.057.171-4.105.44-6.321.687 0 .662-.095 1.247.018 1.788.309 1.476.557 2.955 1.055 4.405.65 1.891.975 3.895 1.452 5.902.428.062.748.154 1.065.145.813-.024 1.624-.096 2.437-.144 2.031-.119 4.063-.321 6.095-.33 2.217-.01 4.434.2 6.653.239 1.959.035 3.921-.02 5.881-.06 2.107-.043 4.216-.202 6.32-.15 2.662.067 5.319.303 7.979.442.343.018.692-.103.848-.129.32-.763.622-1.307.779-1.89.519-1.921 1-3.852 1.466-5.786.217-.899.342-1.819.558-2.718.147-.612.123-1.162-.309-1.736-.951-.109-1.937-.263-2.93-.327-2.176-.142-4.354-.24-6.531-.352-.78-.039-1.277.351-1.481 1.077-.19.676-.321 1.368-.47 2.054-.285 1.306-.548 1.618-1.863 1.537-2.463-.151-4.938.513-7.391-.125a1.402 1.402 0 00-.663-.002c-1.418.354-2.838.301-4.28.163-1.028-.099-2.073-.005-3.11-.019-1.338-.018-1.607-.246-1.885-1.527-.141-.65-.238-1.314-.43-1.949-.283-.939-.634-1.188-1.61-1.206-1.111-.02-2.228-.081-3.332.011zm36.412-14.206c-.205.054-.395.165-.612.259 0 .589-.055 1.148.012 1.692.132 1.08-.274 1.841-1.155 2.451-1.546 1.072-3.057 2.193-4.597 3.303-1.128-.856-2.028-.177-2.794.427-.668.077-.434-.995-1.158-.675-.005.081-.04.174-.008.216 1.239 1.613 2.484 3.222 3.73 4.83.325.42.781.468 1.281.521 1.801.191 3.602.392 5.388.684 1.279.209 1.552.625 1.546 1.976-.002.552-.023 1.113-.122 1.654-.294 1.6-.638 3.191-.945 4.789-.059.308-.037.633-.051.941.206.057.312.117.413.11.554-.035 1.106-.092 1.659-.133 1.652-.122 1.765-.235 2.308-1.843.223-.661.541-1.293.85-1.921.291-.59.681-1.136.935-1.74l.343-.82c.748-1.777 1.547-3.542 2.96-5.115-.389-.578-.722-1.103-1.085-1.607-2.18-3.034-4.377-6.055-6.547-9.096-.899-1.261-.888-1.288-2.351-.903zm-45.024.614c-.465.668-.864 1.384-1.345 2.039-1.927 2.624-3.879 5.23-5.809 7.853-.256.347-.433.752-.651 1.138 1.626 1.849 2.503 4.009 3.348 6.187.107.275.169.599.357.807.85.942 1.161 2.123 1.589 3.266.15.4.562.893.938.979 1.02.233 2.081.379 3.258.234-.076-.502-.132-.894-.194-1.285-.332-2.077-.74-4.145-.971-6.233-.138-1.25.245-1.67 1.494-1.886 1.711-.294 3.437-.545 5.166-.672.817-.06 1.397-.288 1.882-.932 1.047-1.388 2.134-2.748 3.193-4.128.113-.148.146-.358.217-.538l-.192-.133-.887.904c-1.312-1.025-1.913-1.124-2.902-.509-.493-.372-.898-.689-1.316-.99-1.2-.864-2.403-1.724-3.609-2.58-.632-.448-.881-1.051-.843-1.82.035-.693.008-1.388.008-2.117-.339-.101-.615-.195-.896-.263-1.143-.277-1.17-.276-1.835.679zM40.895 49.51c.228.011.536.291.644.523.357.768.661 1.562.939 2.363.125.358.118.768-.365.894-.435.113-.707-.139-.848-.524-.1-.276-.154-.568-.238-.85-.434-1.461-.751-1.633-2.376-1.267-.376.707.663 1.576-.417 2.158-.648-.661-.838-1.464-.869-2.31-.018-.505.313-.896.779-.941.911-.088 1.836-.09 2.751-.046zm30.389.45c.099.145.184.34.18.509-.022.854-.235 1.645-.846 2.336-1.096-.563-.084-1.431-.393-2.063-1.399-.586-1.935-.352-2.378 1.045-.123.384-.17.821-.39 1.137-.145.209-.546.336-.818.315-.126-.01-.364-.508-.301-.703.298-.907.596-1.835 1.062-2.66.427-.754 3.39-.636 3.884.084zM51.501 33.45c-.849-.002-1.403.331-1.862 1.111-.746 1.27-1.523 2.585-2.556 3.611-2.009 1.996-3.613 4.305-5.402 6.47-.221.268-.385.584-.715 1.093h3.922l1.508 4.6h16.189c.32-1.673.636-3.192 1.631-4.652h3.453l.129-.269c-1.646-2.035-3.187-4.168-4.971-6.075-1.405-1.501-2.665-3.077-3.676-4.843-.436-.76-.995-1.04-1.788-1.041-1.954-.005-3.908.001-5.862-.005zm9.827 6.956c.067.263.132.535.206.804.301 1.104.613 2.205.905 3.311.218.822.073 1.176-.696 1.493a10.17 10.17 0 01-1.794.554c-.773.161-1.474.017-1.906-.798l-1.019.2c-.091-.211-.285-.451-.228-.573.199-.428.449-.844.745-1.212a96.415 96.415 0 012.484-2.971c.318-.367.563-.898 1.303-.808zm-13.749-.25c.425.321.719.472.917.705a223.315 223.315 0 013.179 3.832c.269.332.618.692.142 1.23l-1.041-.127c-.428.817-1.159.911-1.979.767-.073-.013-.145-.031-.217-.047-2.363-.513-2.54-.835-1.845-3.137.295-.977.52-1.974.844-3.223zm.458 2.131l-.723 2.612c1.024.232 1.79.87 2.78.219-.684-.914-1.111-1.928-2.057-2.831zm12.563.023l-1.892 2.872c1.072.496 1.815-.019 2.721-.285-.119-.919-.272-1.713-.829-2.587zm20.189-6.502c.296.463.431.72.608.943 1.747 2.209 3.443 4.451 4.781 6.943.391.728 1.165.901 1.857.438.21-.141.4-.314.542-.427.365.27.639.617.83.576.237-.05.506-.392.587-.661a88.043 88.043 0 001.124-4.068c.251-.997.436-2.01.686-3.182-1.903-.303-3.706-.08-5.492-.172-1.772-.091-3.541-.247-5.523-.39zm-53.551-.002c-2.101.129-4.201.279-6.303.39-.886.047-1.778-.005-2.667.024-.381.013-.759.12-1.323.215.664 2.539 1.278 4.933 1.931 7.317.062.225.389.553.559.533.252-.029.474-.325.817-.591.164.134.35.315.564.455.6.396 1.438.287 1.742-.285 1.417-2.662 3.231-5.046 5.097-7.397.116-.146.135-.37.224-.633-.282-.013-.463-.039-.641-.028zm27.57.087c.9 1.642 2.594 2.381 3.774 3.791-.934 1.504-1.803 3.047-3.146 4.237-.611.541-1.432.542-2.043 0-1.341-1.191-2.208-2.736-3.162-4.258l3.798-3.486-.136-.227.915-.057zm-.4 1.316l-2.624 2.78c.737.825 1.382 1.62 2.117 2.321.185.176.807.2.974.036.748-.733 1.603-1.404 2.051-2.494l-2.518-2.643zm40.253-6.28c-.783.228-1.482.417-2.172.636-.773.245-1.528.552-2.308.768-1.197.332-1.798 1.179-1.708 2.451l4.785.259-.793 6.84 2.093-.16c.421-3.615.878-7.101.103-10.794zm-80.499-.009c-.754 3.729-.32 7.239.11 10.706.811.239 1.441.394 2.076.069l-.777-6.652 4.857-.263c-.129-1.536-.64-2.15-1.984-2.505-.676-.179-1.326-.452-1.993-.664-.725-.231-1.457-.441-2.289-.691zm59.439 1.915c-1.2.087-1.981.627-2.784 1.141-.035.198-.075.378-.098.56-.276 2.182-.665 2.631-2.759 3.167-1.155.297-2.039-.046-2.629-1.099-.265-.472-.412-1.01-.612-1.515-1.016-.083-1.772.398-1.892 1.198-.177 1.17.348 2.066 1.35 2.175 1.468.16 2.94.291 4.414.369 2.072.11 3.576-.951 4.821-2.479.089-.109.179-.26.181-.392.015-1.018.008-2.037.008-3.125zm-38.27-.105c-.158 1.268-.434 2.483.034 3.417.524 1.046 1.488 1.982 2.707 2.328.872.247 1.82.317 2.731.305 1.215-.015 2.427-.19 3.64-.291 1.121-.092 1.686-.846 1.566-2.101-.085-.89-.826-1.395-1.899-1.293-.714 2.063-1.478 2.933-2.699 2.683-2.51-.514-3.04-.609-3.425-3.821-.353-.216-.709-.478-1.102-.662-.427-.2-.888-.327-1.553-.565zm3.47 1.289c-.185 1.093.168 1.825.935 2.312.882.559 1.884.699 2.843.271.59-.264.915-.822.709-1.591l-4.487-.992zm31.151.007l-4.421.993c-.001 1.033.336 1.681 1.069 1.711.782.032 1.624-.058 2.35-.332.904-.343 1.212-1.241 1.002-2.372zm14.936-18.34c-.822 1.903-1.662 3.796-2.485 5.698-.054.124-.021.285-.037.581.406.117.805.259 1.215.343.733.149.989.39.858 1.123a5.568 5.568 0 01-.594 1.658c-.868 1.587-1.266 3.296-1.469 5.118.762 1.01 1.792 1.861 2.498 3.242l-.608-.329-.207-.321-.113.076.235.322c.365 1.328.473 1.399 1.891 1.201.064-.139.183-.297.206-.468.116-.822.592-1.295 1.344-1.602 1.195-.486 2.358-1.05 3.549-1.548 2.85-1.194 5.86-1.803 8.876-2.381.338-.066.681-.108.975-.154-1.11-1.22-2.177-2.381-3.23-3.558-.314-.352-.657-.424-1.094-.284-.914.293-1.824.634-2.782.092-.155-.088-.429.057-.646.048-1.068-.046-2.177.289-3.238-.304.768-2.362 1.52-4.68 2.285-6.994.025-.077.169-.114.361-.235l.442 1.394.791-1.501c-2.768-.658-5.35-1.27-7.93-1.888-.6-.143-.879.175-1.093.671zm-62.148-.652c-1.941.467-3.887.911-5.824 1.39-.627.156-1.233.392-1.975.632l.806 1.302.393-1.372c.594.629 2.34 5.752 2.582 7.48-.699.016-1.382.039-2.065.046-.62.006-1.323-.193-1.843.034-.892.388-1.672.2-2.467-.089-.674-.246-1.084-.038-1.53.481-.817.951-1.707 1.839-2.59 2.731-.16.162-.431.214-.651.317 2.127.603 4.006.988 5.868 1.44 2.339.567 4.621 1.312 6.777 2.399 1.138.575 2.443 1.002 2.456 2.562 1.501.208 1.608.138 1.972-1.191l.234-.32-.112-.077-.208.321-.419.206-.133-.162 2.421-2.978c-.164-2.113-.799-3.951-1.726-5.702a3.104 3.104 0 01-.324-1.051c-.087-.744.129-1.008.868-1.114.479-.068.974-.065 1.204-.584 0-.097.023-.18-.004-.242-.85-1.969-1.713-3.933-2.554-5.906-.235-.551-.61-.684-1.156-.553zm59.148 16.034c.237 1.353 1.256 2.187 2.114 3.134-.437-1.222-1.019-2.356-2.115-3.134zm-55.04-.141c-1.009.934-1.581 2.063-2.089 3.239 1.281-.883 2.278-2.435 2.089-3.239zm48.833-9.589c-.738.343-1.493.663-2.193 1.073-2.452 1.434-5.049 2.457-7.854 2.956-.873.155-1.738.384-2.587.641-1.154.35-2.29.759-3.509 1.168.128.407.141.788.283.844.787.311.88 1.053 1.138 1.686.406.994.767 2.006 1.177 2.999.149.362.383.688.567 1.011.258-.029.409-.026.548-.065 1.773-.502 3.537-1.04 5.32-1.509 2.565-.676 5.158-1.253 7.711-1.971 1.591-.447 3.13-1.075 4.593-1.587.885-1.58 1.127-3.104.646-4.627-.744-.453-1.502-.686-1.89-1.198-.865-1.143-2.162-1.176-3.321-1.572-.173-.06-.434.061-.629.151zm-44.072.072c-.671.302-1.55.406-1.986.904-.644.738-1.364 1.199-2.269 1.466-.513 1.68-.302 3.233.324 4.318 2.979 2.203 6.291 2.232 9.284 3.269 2.97 1.03 6.124 1.523 9.265 2.267.191-.384.416-.767.579-1.174.427-1.066.795-2.157 1.253-3.209.18-.413.493-.792.818-1.115.446-.442.46-.827-.088-1.117a5.008 5.008 0 00-1.038-.389c-2.217-.593-4.448-1.134-6.652-1.77a28.378 28.378 0 01-3.646-1.321c-1.281-.569-2.519-1.248-3.741-1.939-.698-.395-1.359-.525-2.103-.19zm49.936 11.248l-.14.107.29.44.208-.15a67.612 67.612 0 00-.359-.397zM65.653 1.503c-.562 2.512-1.029 4.91-1.645 7.27-.625 2.389-1.397 4.739-2.097 7.08l-2.904.442c-.08.608-.172 1.221-.238 1.837-.091.856-.472 1.383-1.358 1.664-2.013.638-3.978.637-5.992 0-.885-.28-1.266-.806-1.358-1.663-.066-.615-.159-1.228-.236-1.819l-2.914-.481c-.71-2.377-1.474-4.698-2.089-7.058-.623-2.392-1.099-4.822-1.636-7.223-1.319-.408-7.102.008-8.094.597.195.42.47.827.579 1.274.535 2.193 1.011 4.401 1.542 6.595.108.443.412.837.54 1.279.182.628.543 1.368.363 1.902-.301.89-.009 1.589.214 2.358.443 1.525.95 3.036 1.306 4.582.384 1.667.922 2.24 2.616 2.407.257.025.515.027.75.038.872 1.077 2.074 1.562 3.289 1.996 1.255.449 2.548.791 3.795 1.259.415.155.964.498 1.058.859.208.797.333 1.692.179 2.487-.14.725.001 1.267.34 1.811l.085.13.101-1.028.103-1.057.276-.075.864 1.718c-.169.156-.306.232-.368.347-.441.821-.106 1.366.819 1.36.59-.003 1.18.002 1.77.003.865.002 1.211-.519.839-1.29-.073-.151-.23-.26-.368-.411.326-.547.197-1.347 1.091-1.577l.159 1.547.047.459.051-.099c.201-.368.529-.773.446-1.059-.228-.793.034-1.527.024-2.284-.019-1.303.093-1.496 1.344-1.938 1.187-.42 2.409-.74 3.595-1.162 1.215-.433 2.416-.919 3.288-1.995.309-.018.644-.011.971-.061 1.398-.216 2.097-.731 2.273-1.732.335-1.901.761-3.768 1.521-5.559.217-.513.336-1.201.178-1.709-.248-.799-.107-1.554.272-2.111.379-.557.512-1.118.658-1.718.22-.899.446-1.797.67-2.695l1.281-5.155c-2.693.03-5.331-.956-8-.342zM57.07 31.187l.015-.032-.367.853.353.072-.001-.893zm-5.311-.004l.001-.039c.022.313-.316.734.38.826l-.198-.408-.183-.379zm47.914-11.055l-1.298 3.319c1.091 1.831 2.659 3.088 4.351 4.523l1.995-6.988-5.048-.854zm-90.536-.021l-5.151.92c1.054 2.306 1.244 4.679 2.196 6.919 1.632-1.491 3.28-2.697 4.264-4.538l-.513-1.294-.796-2.007zm68.65-8.575l-1.084 1.99c-.509-.035-.946-.069-1.383-.096-.776-.048-1.552-.107-2.329-.136-.636-.023-1.077.233-1.149.928-.174 1.674-.692 3.245-1.315 4.803-.254.635-.583 1.357-.197 2.238 1.229-.394 2.438-.729 3.607-1.169 1.737-.653 3.388-.483 5.018.319.486.238.983.452 1.642.754l2.984-8.751-5.794-.88zm-46.748-.002l-5.813.891c1.091 2.932 1.905 5.828 3.067 8.722.586-.266 1.026-.442 1.444-.66 1.766-.921 3.548-1.05 5.424-.291 1.084.438 2.236.705 3.418 1.067.213-1.078-.087-1.929-.436-2.721-.56-1.27-.91-2.575-1.093-3.945-.157-1.176-.351-1.321-1.497-1.302-.592.009-1.184.056-1.775.098-.543.038-1.085.092-1.641.139l-1.098-1.998zm-25.466.624l-4.479.705 2.719 7.243 5.108-.823c-.504-1.209-.887-2.238-1.356-3.226-.596-1.256-1.262-2.478-1.992-3.899zm97.682-.004c-.718 1.406-1.295 2.634-1.961 3.812-.572 1.01-.95 2.066-1.228 3.37l4.969.746 2.69-7.211-4.47-.717zm-24.13-3.675l-.861 2.02c2.046.524 3.926.94 5.953.676l.45-1.295-5.542-1.401zm-49.451-.002l-5.533 1.422.498 1.308c2.084.166 3.966-.148 5.931-.754-.325-.718-.591-1.306-.896-1.976zM27.546 5.26c-1.499.142-3.008.189-4.512.277-.384.022-.767.053-1.183.083.499.925.944 1.715 1.352 2.523.272.537.658.758 1.253.635 1.614-.332 3.23-.655 5.004-1.015-.202-.657-.34-1.254-.571-1.813-.237-.575-.69-.752-1.343-.69zm53.436-.001c-.28-.011-.669.177-.835.4-.462.619-.75 1.325-.608 2.123.777.161 1.497.308 2.216.461.755.16 1.503.366 2.265.48 1.204.18 1.211.155 1.804-.944.362-.67.719-1.343 1.114-2.082-.101-.05-.164-.107-.231-.112-1.908-.118-3.816-.25-5.725-.326z" fill="#ddd2c5" fill-rule="evenodd"/><path d="M84.475 75.896c-.139.113-.263.177-.323.28-.024.039.11.241.148.234a.721.721 0 00.339-.176c.02-.017-.08-.17-.164-.338zm1.585 7.669c-.635-.842-1.186-1.578-1.742-2.31-.241-.32-.465-.718-1.072-.168l2.543 3.516.27-1.038zm-2.614-6.377c.331-.784-.147-1.824-1.303-3.106-.153-.17-.384-.268-.682-.469l-.226.964 2.211 2.611zm-2.331-1.444l-.276.046-.443 2.517 2.197-.556-1.478-2.007zm6.469 3.063l-.301-.13c-.815.516-1.63 1.032-2.411 1.529l1.485 2.559 1.227-3.958zm-5.339 22.687c-.466-.016-.939-.092-1.398-.04-1.513.175-2.848-.23-4.099-1.068-.59-.395-.997-.837-1.112-1.564-.07-.444-.282-.866-.473-1.424-1.078 2.046-.547 3.54 1.36 4.232.31.114.643.187.972.223a83.19 83.19 0 003.31.303c.525.035 1.104.13 1.44-.662zm-5.906-3.79c.365 1.642 1.833 2.711 3.46 2.746.849.02 1.7-.003 2.547-.052 1.203-.07 1.917-.718 2.09-1.906-.195.104-.375.155-.497.27-.725.677-1.525.703-2.47.51-1.69-.343-3.44-.421-5.13-1.568zm-.064-4.524c-.349.615-.284 1.198.219 1.601.473.38 1.04.72 1.62.87 1.358.352 2.745.48 4.162.288 1.112-.151 1.396-.417 1.353-1.735-1.237-.013-2.5.094-3.722-.075-1.215-.167-2.391-.613-3.632-.949zm3.302-11.653c1.387-.472 2.676-.957 3.82-1.783.177-.127.331-.303.526-.384.988-.407 1.994-.774 2.98-1.187 1.112-.466 1.569-1.494 1.244-2.821-.3.164-.6.3-.87.48-2.318 1.53-4.558 3.191-7.107 4.345-.507.23-.663.638-.593 1.35zm2.418 21.636c-1.167-.133-2.322-.307-3.484-.386-1.628-.11-3.178-.349-4.301-1.712-.097-.116-.29-.151-.481-.245-.078.213-.152.344-.175.484-.41 2.531-.951 5.022-2.116 7.341-.177.355-.158.808-.23 1.217l.273.17c.497-.405.992-.815 1.494-1.214.808-.643 1.586-.461 1.925.497.222.626.315 1.295.501 1.934.106.363.283.704.436 1.076.735-.455.735-.455 1.371-1.55.573-.987.993-1.198 2.094-.94.565.134 1.108.365 1.733.575.842-1.63.319-3.278.363-4.795-.522-.485-1.32-.493-1.356-1.327 1.534.344 1.648.282 1.953-1.125zm.337-21.662c-.943.307-1.894.592-2.823.936-.205.076-.39.335-.483.553-.162.37-.262.771-.36 1.166a1318.48 1318.48 0 00-1.753 7.225c-.04.168.004.357.012.613 1.236.508 2.405 1.137 3.812 1.004.549-.051 1.11.01 1.664.04 1.103.06 1.247-.02 1.53-1.13.348-1.363.647-2.738.981-4.104.227-.928.476-1.85.664-2.572l-3.244-3.73zm7.149-26.788c-1.194-.303-2 .173-2.59 1.167-.566.954-1.154 1.896-1.68 2.873-.308.574-.61 1.183-.748 1.812-.694 3.143-1.182 6.34-2.05 9.43-.467 1.662-.165 2.81.959 3.957.666.68 1.186 1.515 2.15 1.78 1.095-.53 2.154-1.04 3.235-1.561 1.692-6.068 2.429-12.387 4.647-18.554-1.42-.325-2.678-.588-3.923-.904zM94.763 56c-.439 1.406-.953 2.753-1.275 4.144-1.154 4.983-2.182 9.994-3.378 14.965-.691 2.879-1.632 5.695-2.424 8.55a336.492 336.492 0 00-1.87 7.088c-.362 1.428-.653 2.874-1.008 4.304-.097.39-.302.755-.466 1.127-.267.606-.732.834-1.398.901-1.863.189-3.697.124-5.516-.335-.158-.04-.328-.029-.682-.057.886.984 1.867 1.328 2.934 1.503.802.133 1.602.318 2.41.37.403.026.845-.143 1.227-.317.33-.15.58-.461.9-.645.741-.428 1.436-.061 1.294.774-.118.69-.446 1.441-.908 1.96-1.525 1.714-1.977 3.756-2.075 5.938-.055 1.216-.042 2.436-.13 3.649-.033.468-.229.936-.411 1.38-.313.757-.822.892-1.49.436-.062-.041-.11-.1-.17-.145-1.287-1.006-1.587-.94-2.434.504-.187.319-.385.64-.63.913-.932 1.034-2.175.858-2.788-.403-.175-.36-.232-.776-.343-1.167l-.323-1.131c-.095-.072-.19-.142-.286-.213-.251.264-.457.624-.765.774-.62.302-1.28.6-1.954.695-.774.11-1.157-.256-1.06-1.033.12-.982.38-1.956.68-2.902.668-2.117 1.394-4.215 2.108-6.315.13-.38.222-.863.501-1.085.66-.526.756-1.234.89-1.963.269-1.446.4-1.654 1.594-2.625-.097-.243-.26-.5-.297-.775-.071-.532-.2-1.103-.083-1.606.73-3.133 1.514-6.253 2.293-9.376.6-2.406 1.225-4.806 1.827-7.213 1.178-4.702 3.451-11.405 4.176-16.223.047-.313 2.218-3.853 4.811-4.773 3.155-1.12 6.817.38 6.52.327z" fill="#ddd2c5" fill-rule="evenodd" style="animation:4.267s linear infinite both a0_t"/><path d="M16.932 75.58l.152.236a.444.444 0 01.057.138c.008.045-.186.19-.22.17a.718.718 0 01-.259-.282c-.012-.022.134-.132.27-.261zm-4.212 7.733l.101-1.068 2.605-1.692c.28-.174.571-.271.885.326l-3.591 2.434zm4.738-6.166c-.043-.85.762-1.664 2.287-2.473.2-.108.452-.12.8-.208l-.116.983-2.971 1.698zm2.684-.56l.243.138-.443 2.516-1.874-1.274 2.074-1.38zm-7.328 4.804l.2-4.138.33-.02 1.742 2.262-2.272 1.896zm-2.542 19.006c.445.145.915.235 1.329.442 1.361.68 2.753.757 4.217.397.631-.155 1.132-.4 1.487-.936l.093-.153c.217-.393.56-.718.93-1.176.314 2.291-.696 3.513-2.724 3.512-.331 0-.668-.045-.99-.124-.717-.177-1.433-.357-2.147-.549l-1.26-.353c-.417-.121-.831-.283-.92-.908l-.015-.152zm6.847-1.541c-.904 1.419-2.649 1.921-4.19 1.398a32.285 32.285 0 01-2.377-.921c-1.105-.477-1.555-1.33-1.312-2.506.15.164.3.274.376.424.419.825 1.094 1.14 1.959 1.294l.188.03c1.599.24 3.167.716 4.988.363l.368-.082zm1.607-4.23c.117.698-.143 1.224-.753 1.43-.574.195-1.223.321-1.82.264-1.396-.134-2.744-.487-4.01-1.153-.993-.522-1.169-.87-.678-2.094 1.168.411 2.316.944 3.524 1.204 1.028.22 2.099.24 3.19.31l.547.04zm.883-12.078c-1.142-.919-2.186-1.816-2.98-2.983-.122-.18-.208-.398-.362-.54-.79-.721-1.61-1.41-2.394-2.135-.886-.819-.965-1.94-.206-3.077l.45.496c.072.082.14.166.205.253 1.655 2.231 3.191 4.558 5.192 6.514.367.36.4.76.16 1.326l-.065.146zm-9.671 19.504c1.142.274 2.287.505 3.405.828 1.567.454 3.106.76 4.628-.137.13-.077.324-.043.534-.066l.012.338a.842.842 0 01-.013.176c-.48 2.52-.823 5.045-.522 7.622.046.394-.128.814-.2 1.222l-.314.068c-.33-.552-.653-1.105-.988-1.653-.54-.88-1.333-.975-1.98-.19-.422.51-.739 1.108-1.132 1.645-.223.305-.507.564-.779.862l-.237-.307c-.217-.293-.296-.47-.39-.92l-.13-.698c-.2-1.124-.523-1.466-1.646-1.6-.577-.067-1.166-.036-1.826-.052-.234-1.82.823-3.19 1.3-4.63.655-.278 1.41-.012 1.727-.784l-.452-.062c-1.077-.169-1.166-.371-1.017-1.515l.02-.147zm2.766-18.075l4.324-2.396 1.177.911c.392.305.78.614 1.157.934.167.141.25.447.265.685.026.403-.018.814-.062 1.218-.268 2.464-.54 4.927-.824 7.388-.019.173-.125.335-.22.573-1.245.051-2.473.22-3.669-.249l-.256-.111c-.498-.236-1.046-.37-1.577-.532l-.265-.084c-.81-.268-.89-.464-.787-1.502.14-1.399.328-2.793.482-4.19l.084-.81c.066-.666.12-1.304.171-1.835zm6.77-30.014c1.224.123 1.82.847 2.035 1.982l.314 1.635c.104.545.201 1.091.281 1.64.094.645.168 1.32.083 1.959-.37 2.79-.902 5.568-1.19 8.363l-.109 1.198c-.122 1.64-.742 2.604-2.052 3.291l-.202.1c-.858.412-1.633 1.018-2.628.937l-2.507-2.573c.484-6.28 1.954-12.47 1.978-19.025l2.343.302c.56.07 1.106.136 1.654.191zm-5.404-.597c-.07 1.472-.046 2.914-.22 4.331-.62 5.077-1.367 10.138-1.945 15.218-.334 2.941-.412 5.91-.645 8.863a336.485 336.485 0 01-.668 7.3c-.147 1.466-.368 2.925-.524 4.39-.042.4.025.812.053 1.218.044.661.402 1.034 1.004 1.325 1.686.814 3.433 1.381 5.298 1.572.163.016.32.085.66.18-1.09.58-2.069.607-3.058.446l-.212-.037c-.8-.15-1.614-.25-2.391-.477-.388-.114-.745-.424-1.045-.718-.258-.253-.387-.632-.624-.914-.55-.655-1.329-.549-1.481.285-.127.69-.075 1.507.183 2.153.847 2.132.572 4.204-.081 6.289-.366 1.16-.795 2.302-1.127 3.473-.128.451-.105.958-.084 1.437.034.82.466 1.12 1.25.92l.208-.08.313-.096c1.18-.349 1.479-.16 1.738 1.074l.065.33c.067.363.143.733.28 1.073.522 1.29 1.75 1.55 2.758.575.287-.278.483-.65.72-.979l.692-.952.34-.103c.147.335.216.743.454.989.48.496 1 1.002 1.599 1.322.69.367 1.175.155 1.35-.608.223-.964.311-1.969.354-2.96.096-2.218.132-4.437.178-6.656l.022-.472c.008-.268-.005-.528-.121-.718-.34-.554-.327-1.096-.248-1.648l.146-.903c.16-1.107.048-1.422-.664-2.61.175-.195.416-.381.544-.627l.223-.411c.186-.347.36-.703.404-1.07.387-3.194.717-6.394 1.053-9.594l.749-7.404c.503-4.82.659-11.897 1.626-16.672.063-.31-.766-4.38-2.889-6.13-2.582-2.132-6.535-1.976-6.237-1.924z" fill="#ddd2c5" fill-rule="evenodd" style="animation:4.267s linear infinite both a1_t"/></svg>