<svg xmlns="http://www.w3.org/2000/svg" xmlns:xlink="http://www.w3.org/1999/xlink" viewBox="0 0 846 112"><defs><linearGradient id="c" x1="4.491%" x2="97.474%" y1="49.87%" y2="50%"><stop offset="0" stop-color="#2ef0f4"/><stop offset="1" stop-color="#4eb4ff"/></linearGradient><filter id="a" height="209.1%" width="109.4%" x="-4.7%" y="-54.5%"><feOffset in="SourceAlpha" result="shadowOffsetOuter1"/><feGaussianBlur in="shadowOffsetOuter1" result="shadowBlurOuter1" stdDeviation="12.5"/><feColorMatrix in="shadowBlurOuter1" values="0 0 0 0 0 0 0 0 0 0.701960784 0 0 0 0 0.784313725 0 0 0 0.640898164 0"/></filter><path id="b" d="M83.925 23.39v1.35c-5.04 1.71-7.56 7.02-11.97 16.29l-10.98 22.95v11.981c.023 9.363.475 11.169 4.5 11.869v1.35l-.99-.037a363.907 363.907 0 00-9.54-.143l-2.264.01c-3.087.027-6.696.099-8.266.17v-1.35l.336-.063c3.714-.746 4.142-2.71 4.163-11.806l.001-8.651-16.697-32.653c-3.598-6.982-5.43-9.83-7.513-9.917v-1.35l.635.025c2.362.081 7.597.155 10.615.155l2.308-.009c3.444-.025 7.245-.098 8.852-.171v1.35l-.522.108c-2.437.542-3.618 1.376-3.618 3.312 0 1.566.673 3.637 2.344 7.187L57.915 62l10.8-22.95c1.62-3.42 3.06-7.02 3.06-9.54 0-2.25-.99-4.14-4.14-4.77v-1.35l1.136.045c1.377.047 3.19.09 5.053.114l1.579.016 1.943.004 1.008-.007c2.275-.024 4.015-.098 5.571-.172zm19.8 16.47l16.2 40.5c1.8 4.41 3.96 6.93 7.2 7.83v.9L116.616 89l-5.064.028-8.007.062v-.9c3.42-.54 4.86-1.62 4.86-3.96 0-1.53-.63-3.6-1.71-6.48l-1.53-3.96-10.04.004c-1.719.007-3.033.027-4.27.086l-.63 1.44c-1.53 3.69-2.43 6.48-2.43 8.46 0 2.52 1.35 3.87 4.5 4.41v.9l-2.99-.033-3.625-.046c-.545-.005-1.06-.01-1.515-.01l-1.63.006c-2.41.02-5.81.083-6.71.083v-.9c4.77-.99 7.56-5.13 11.25-13.95l14.4-34.38zm-5.22 16.02l-6.66 15.57.588.027c.987.04 2.02.055 3.336.06l2.466.003 6.12-.09zm61.02-2.43h.9l-.004-.59c-.017-1.34-.086-2.481-.086-4.45 0-2.16.09-4.86.27-6.66l-.76.087c-.48.053-.92.093-1.4.093-2.52 0-5.58-1.17-10.08-1.17-9.72 0-14.04 5.31-14.04 12.33 0 7.25 4.691 11.026 11.256 15.594l1.818 1.265c5.13 3.604 7.626 5.859 7.626 10.231 0 5.04-3.33 7.2-7.74 7.2-6.48 0-9.63-4.77-9.63-10.98 0-1.08.09-2.07.18-2.7h-.9c-1.62 2.07-1.98 4.32-1.98 6.39 0 1.53.18 3.06.18 4.77 0 1.62-.18 3.06-.81 4.05.72-.09 1.8-.09 2.43-.09 2.88 0 6.48 1.08 10.71 1.08 10.17 0 15.84-6.12 15.84-14.22 0-6.03-3.15-9.81-10.53-14.85l-2.522-1.71c-4.426-3.025-7.648-5.573-7.648-9.99 0-3.78 2.34-5.85 6.12-5.85 4.77 0 8.37 3.33 10.8 10.17zm50.94 1.71V71l-.006.762c-.147 10.05-3.271 15.618-11.964 15.618-4.14 0-7.29-1.26-8.82-4.32-1.263-2.442-1.423-6.065-1.439-11.016v-18.1c.033-9.544.522-11.232 4.499-11.924v-.9l-1.007.038a323.91 323.91 0 01-9.073.142l-1.115-.003c-3.205-.016-7.197-.097-8.965-.177v.9c4.14.72 4.5 2.52 4.5 13.14v16.65c0 6.75 1.17 10.62 3.78 13.32 4.05 4.14 11.07 5.22 16.02 5.22 13.454 0 16.588-7.85 16.65-18.661l.002-17.319c.042-9.92.947-11.648 6.298-12.35v-.9l-1.403.059c-1.737.067-3.837.121-6.427.121l-1.599-.007a165.806 165.806 0 01-6.231-.173v.9l.408.057c5.122.76 5.892 2.732 5.892 13.083zm63.72 35.82c-.28-6.79-.342-14.614-.356-21.78l-.002-6.975c.05-16.605 1.355-18.794 6.118-20.205v-.9l-1.338.056c-1.84.068-4.256.124-6.672.124l-1.042-.003c-2.92-.016-5.556-.096-7.328-.177v.9c5.166 1.425 6.982 5.053 7.02 20.653V73.79l-36.99-33.57h-1.26c.315 7.639.354 16.311.36 24.088l-.002 4.307c-.05 16.605-1.355 18.794-6.118 20.205v.9l1.338-.056c1.595-.059 3.622-.109 5.707-.121l.965-.003c3.33 0 6.39.09 8.37.18v-.9c-5.166-1.425-6.982-5.053-7.02-20.653V57.86l36.99 33.12zm65.52-26.01c0-15.84-11.25-25.02-25.92-25.02s-25.92 9.18-25.92 25.02 11.25 25.02 25.92 25.02 25.92-9.18 25.92-25.02zm-25.92 22.5c-9.17 0-13.056-8.367-13.139-22.052l-.001-.448c0-13.95 3.87-22.5 13.14-22.5s13.14 8.55 13.14 22.5l-.005.892c-.164 13.422-4.064 21.608-13.135 21.608zm82.44-.45c-4.23-1.44-10.26-7.47-16.02-19.8 9.9-3.15 11.97-8.73 11.97-12.96 0-7.654-6.865-12.932-21.117-13.048h-1.16c-2.205.016-6.445.088-9.673.088l-1.19-.003c-3.382-.016-7.302-.097-9.07-.177v.9c4.096.61 4.479 2.992 4.5 10.577l-.002 23.76c-.032 9.543-.521 11.231-4.498 11.923v.9l.465-.02c1.937-.073 5.551-.142 8.5-.157h2.23c3.205.016 7.197.097 8.965.177v-.9l-.32-.06c-3.683-.73-4.147-2.581-4.178-11.863l-.002-8.057h2.61l.38.73c5.806 11.274 7.45 20.33 20.05 20.33 2.52 0 5.04-.36 7.56-1.44zm-30.6-21.06v-21.6c1.35-.36 3.15-.63 4.86-.63 6.48 0 8.73 3.69 8.73 10.8l-.006.593c-.13 6.839-2.582 10.837-11.244 10.837zm57.96 23.22v-.9l-.32-.06c-3.683-.73-4.147-2.581-4.178-11.863V53.943c.032-9.543.521-11.231 4.498-11.923v-.9l-1.007.038a323.91 323.91 0 01-9.073.142l-1.115-.003c-3.205-.016-7.197-.097-8.965-.177v.9c4.14.72 4.5 2.52 4.5 13.14l-.002 21.197c-.032 9.543-.521 11.231-4.498 11.923v.9l.465-.02c1.937-.073 5.551-.142 8.5-.157h2.23c3.205.016 7.197.097 8.965.177zm113.04-1.35c-3.06-1.08-3.96-6.39-4.95-12.6l-8.37-53.01h-2.25l-21.6 49.5-22.68-49.5h-2.25l-8.64 49.86-.337 1.878c-1.553 8.462-2.891 12.696-6.503 13.872v1.35l2.318-.115a75.757 75.757 0 012.898-.063h1.598c3.07.014 6.228.096 8.036.178v-1.35c-3.6-.9-4.95-3.78-4.95-8.37 0-2.07.27-4.41.72-7.11l4.59-26.73 20.07 44.1h1.53l18.72-43.38 5.544 31.166c.455 2.606.756 4.621.756 6.094 0 2.52-.81 3.69-2.88 4.23v1.35l1.143-.045a268.38 268.38 0 017.283-.133h1.572c2.996.012 6.887.095 8.632.178zm29.07 1.35v-.9l-.32-.06c-3.683-.73-4.147-2.581-4.178-11.863V53.943c.032-9.543.521-11.231 4.498-11.923v-.9l-1.007.038a323.91 323.91 0 01-9.073.142l-1.115-.003c-3.205-.016-7.197-.097-8.965-.177v.9c4.14.72 4.5 2.52 4.5 13.14l-.002 21.197c-.032 9.543-.521 11.231-4.498 11.923v.9l.465-.02c1.937-.073 5.551-.142 8.5-.157h2.23c3.205.016 7.197.097 8.965.177zm37.26 0v-.9l-.32-.06c-3.683-.73-4.147-2.581-4.178-11.863l-.002-32.177.725.003c8.403.07 10.66 1.46 12.235 8.637h.99c-.156-2.262-.177-3.578-.18-5.47l.001-2.338c.003-1.696.019-3.532.089-5.422l-.451.218c-2.462 1.143-5.028 1.476-18.187 1.491l-4.674-.009c-11.184-.065-13.116-.474-15.568-1.7.07 1.89.086 3.726.089 5.422v2.765a68.493 68.493 0 01-.179 5.043h.99c1.62-7.38 3.96-8.64 12.96-8.64l-.002 32.177c-.032 9.543-.521 11.231-4.498 11.923v.9l.465-.02c1.937-.073 5.551-.142 8.5-.157h2.23c3.205.016 7.197.097 8.965.177zm42.39-35.73h.9l-.004-.59c-.017-1.34-.086-2.481-.086-4.45 0-2.16.09-4.86.27-6.66l-.76.087c-.48.053-.92.093-1.4.093-2.52 0-5.58-1.17-10.08-1.17-9.72 0-14.04 5.31-14.04 12.33 0 7.25 4.691 11.026 11.256 15.594l1.818 1.265c5.13 3.603 7.626 5.858 7.626 10.231 0 5.04-3.33 7.2-7.74 7.2-6.48 0-9.63-4.77-9.63-10.98 0-1.08.09-2.07.18-2.7h-.9c-1.62 2.07-1.98 4.32-1.98 6.39 0 1.53.18 3.06.18 4.77 0 1.62-.18 3.06-.81 4.05.72-.09 1.8-.09 2.43-.09 2.88 0 6.48 1.08 10.71 1.08 10.17 0 15.84-6.12 15.84-14.22 0-6.03-3.15-9.81-10.53-14.85l-2.522-1.71c-4.426-3.025-7.648-5.573-7.648-9.99 0-3.78 2.34-5.85 6.12-5.85 4.77 0 8.37 3.33 10.8 10.17zm50.94 1.71V71l-.006.762c-.147 10.05-3.271 15.618-11.964 15.618-4.14 0-7.29-1.26-8.82-4.32-1.263-2.442-1.423-6.065-1.439-11.016v-18.1c.033-9.544.522-11.232 4.499-11.924v-.9l-1.007.038a323.91 323.91 0 01-9.073.142l-1.115-.003c-3.205-.016-7.197-.097-8.965-.177v.9c4.14.72 4.5 2.52 4.5 13.14v16.65c0 6.75 1.17 10.62 3.78 13.32 4.05 4.14 11.07 5.22 16.02 5.22 13.454 0 16.588-7.85 16.65-18.661l.002-17.319c.042-9.92.947-11.648 6.298-12.35v-.9l-1.403.059c-1.737.067-3.837.121-6.427.121l-1.599-.007a165.806 165.806 0 01-6.231-.173v.9l.408.057c5.122.76 5.892 2.732 5.892 13.083zm17.91 33.12v.9l1.003-.038a323 323 0 018.067-.139l2.928.002c3.884.019 9.846.085 11.312.085 19.08 0 28.35-11.25 28.35-23.94 0-12.563-8.91-23.715-27.863-23.937l-1.65.002c-2.762.019-8.878.085-11.887.085l-1.19-.003c-3.382-.016-7.302-.097-9.07-.177v.9c4.096.61 4.479 2.992 4.5 10.577v25.106c-.021 7.585-.404 9.967-4.5 10.577zm15.66-43.92c1.35-.36 5.31-.63 7.2-.63 9.54 0 15.21 6.84 15.21 21.24 0 14.76-5.94 21.6-15.21 21.6l-.513-.006c-2.019-.04-5.45-.294-6.687-.624zm90.54 43.83c-3.24-.9-5.4-3.42-7.2-7.83l-16.2-40.5h-2.25l-14.4 34.38-.385.911c-3.503 8.196-6.262 12.084-10.865 13.039v.9l6.71-.083 1.3-.007c2.43 0 7.02.09 8.46.09v-.9c-3.15-.54-4.5-1.89-4.5-4.41 0-1.98.9-4.77 2.43-8.46l.63-1.44.786-.032c1.159-.04 2.436-.052 4.073-.056l9.451-.002 1.53 3.96.283.766c.906 2.486 1.427 4.323 1.427 5.714 0 2.34-1.44 3.42-4.86 3.96v.9l12.31-.09 2.435.01c3.07.025 7.777.08 8.835.08zm-22.77-16.74l-6.12.09-3.04-.006a71.48 71.48 0 01-3.35-.084l6.66-15.57z"/></defs><g fill="none"><use fill="#000" filter="url(#a)" xlink:href="#b"/><use fill="url(#c)" xlink:href="#b"/></g></svg>