<svg xmlns="http://www.w3.org/2000/svg" viewBox="0 0 610 50"><g fill="none" fill-rule="evenodd"><path stroke="#D9CEC1" stroke-linecap="round" d="M269.5 25.5H.5m608.5 0H340"/><path fill="#D9CEC1" stroke="#D9CEC1" stroke-width="2" d="M317.33 31.325l-.042 9.418-7.728-4.416L305.085 44l-4.746-8.136h9.128l7.863-4.54zm-25.169 0l8.22 4.745-8.178 4.673-.042-9.418zm30.079-7.028l4.673 8.178-9.419.042 4.746-8.22zm-34.988 0l4.745 8.22-9.418-.042 4.673-8.178z"/><path fill="#D9CEC1" d="M305.085 4c7.824 0 14.358 5.522 15.917 12.882h4.422c0 11.232-9.106 20.338-20.34 20.338-11.116 0-20.15-8.919-20.335-19.992l-.003-.347 4.421.001C290.727 9.522 297.261 4 305.085 4zm0 19.339a4.068 4.068 0 100 8.136 4.068 4.068 0 000-8.136zm0-14.339c-6.366 0-11.526 5.152-11.526 11.506a11.47 11.47 0 003.94 8.663 8.11 8.11 0 01-.57-2.998c0-4.497 3.651-8.143 8.156-8.143 4.504 0 8.156 3.646 8.156 8.143a8.124 8.124 0 01-.57 2.998 11.471 11.471 0 003.94-8.663C316.61 14.152 311.45 9 305.084 9z"/><path fill="#F8F2E5" fill-rule="nonzero" d="M285.746 16.881c0 10.681 8.658 19.34 19.339 19.34 10.567 0 19.154-8.476 19.336-19l.003-.34h2c0 11.786-9.554 21.34-21.34 21.34-11.667 0-21.147-9.364-21.335-20.987l-.003-.353h2z"/><path fill="#D9CEC1" d="M272 24l-2 3-172-1.5zm66 0l2 3 172-1.5z"/></g></svg>