<svg width="544" height="544" xmlns="http://www.w3.org/2000/svg"><path d="M257.328 525.509l4.488.222-.332 6.765 2.244.112.332-6.762 2.244.111-.443 9.02-8.98-.445-.107 2.254 4.485.226-.11 2.255-4.486-.223-.114 2.255 8.976.446-.11 2.255-11.22-.56.554-11.272 4.49.22.222-4.513-2.244-.111.111-2.255zm38.55-.6l1.172 18.025-11.211.735-.734-11.266 2.244-.148-.29-4.5 2.24-.151.29 4.507 4.489-.295-.44-6.76 2.24-.147zm-70.098-3.166l6.65 1.114-1.48 8.908 2.218.373-.372 2.225-6.645-1.114-.743 4.456 8.865 1.484-.368 2.228-11.082-1.854 1.48-8.912 4.434.744 1.108-6.684-4.434-.744.369-2.224zm68.441 12.325l-6.725.442.44 6.762 6.726-.446-.44-6.758zm28.662-13.223l.404 2.225-2.21.404 2.432 13.328 4.422-.816.404 2.222-11.049 2.038-.407-2.225 4.422-.813-2.436-13.325-2.208.41-.407-2.222 6.633-1.226zm-59.377 16.279l2.244.111-.11 2.255-2.248-.114.114-2.252zm28.621-.654l.147 2.252-2.24.148-.15-2.255 2.243-.145zm26.15-3.296l.408 2.222-2.21.406-.405-2.219 2.208-.409zm-116.893-17.247l6.475 1.888-5.012 17.35-2.155-.63 4.384-15.179-2.158-.63-.626 2.169-2.16-.63-.626 2.168-2.157-.632-1.879 6.506 2.158.629-.627 2.17-4.317-1.258 3.134-10.841 2.16.63.626-2.172 2.154.63.626-2.168zm125.735 15.618l.407 2.22-2.214.409-.401-2.222 2.208-.407zm26.752-2.52l.659 2.158-2.148.665-.656-2.158 2.145-.666zm4.296-1.328l.662 2.158-2.151.663-.66-2.156 2.149-.665zm-133.124-1.499l2.217.37-.372 2.229-2.217-.374.372-2.225zM353.54 512.59l.662 2.159-8.59 2.655 1.32 4.318 4.295-1.328-.659-2.162 2.148-.659.656 2.159 2.149-.666 1.983 6.473-8.59 2.656-.662-2.16 6.445-1.99-.662-2.158-8.59 2.656-2.642-8.632 10.737-3.32zm-154.66 12.011l2.157.629-.626 2.17-2.157-.629.626-2.17zm-29.475-20.326l6.208 2.635-3.496 8.321 2.067.88-.875 2.08-6.208-2.638-1.75 4.161 8.282 3.513-.875 2.08-10.348-4.392 3.496-8.318 4.137 1.755 2.625-6.238-4.137-1.758.874-2.08zm211.562-2.86l7.262 16.525-2.058.909-6.352-14.454-6.165 2.733 3.63 8.262-2.057.915-4.54-10.33 10.28-4.56zm-.48 10.085l.908 2.068-2.058.91-.908-2.063 2.058-.915zm-212.831-3.064l2.067.88-.872 2.077-2.07-.88.875-2.077zm-24.523-17.724l9.77 5.579-1.109 1.963-3.91-2.231-1.108 1.963 3.907 2.23-1.109 1.963-1.956-1.113-5.546 9.817-1.956-1.117 5.548-9.817-3.906-2.228 1.108-1.966 1.957 1.114 1.108-1.96-3.907-2.231 1.109-1.966zm235.539 16.657l.908 2.066-2.056.912-.907-2.063 2.055-.915zm28.159-20.225l1.141 1.945-3.873 2.291 1.141 1.948 3.874-2.294 1.141 1.945-1.938 1.147 5.701 9.727-1.935 1.147-5.701-9.727-1.939 1.144 5.704 9.73-1.935 1.144-5.701-9.727-1.939 1.147-1.141-1.948 3.874-2.288-1.142-1.948-3.874 2.294-1.135-1.948 9.677-5.729zm-266.182 12.54l1.954 1.114-1.112 1.963-1.953-1.117 1.111-1.96zm-20.221-24.174l5.434 4.007-1.327 1.821-1.815-1.336-7.973 10.925 3.625 2.67-1.327 1.82-9.06-6.676 1.328-1.821 3.625 2.67 7.972-10.922-1.813-1.337 1.33-1.821zm-1.208 13.111l1.81 1.334-1.327 1.821-1.813-1.337 1.33-1.818zm308.091-15.95l5.429 7.2 1.788-1.365 1.357 1.804-5.371 4.088 2.717 3.598 7.16-5.452 1.358 1.797-8.955 6.82-5.426-7.2 3.58-2.727-4.068-5.398-3.587 2.728-1.354-1.798 5.372-4.094zm-315.338 10.606l1.81 1.34-1.328 1.818-1.815-1.333 1.333-1.825zM426.443 479l1.356 1.8-1.791 1.364-1.357-1.8 1.791-1.364zM99.45 457.973l4.937 4.61-1.53 1.652-3.29-3.07-1.531 1.652 1.648 1.539-1.531 1.653-1.645-1.536-7.649 8.274-4.937-4.613 1.53-1.656 3.29 3.074 10.708-11.579zm353.433-7.978l1.558 1.632-1.624 1.562 3.113 3.258 1.62-1.563 7.778 8.147-8.11 7.816-3.11-3.258 1.621-1.562 1.555 1.629 4.865-4.691-4.667-4.89-1.621 1.566-4.665-4.89-4.865 4.691-1.555-1.631 8.107-7.816zm4.533 11.275l1.558 1.632-1.621 1.562-1.558-1.632 1.62-1.562zm-6.289-3.324l1.558 1.629-1.62 1.562-1.559-1.628 1.621-1.563zM76.081 433.17l4.38 5.151-6.837 5.865 1.459 1.716-1.708 1.466-4.377-5.151-3.418 2.932 5.839 6.867-1.71 1.47-7.296-8.587 6.834-5.867 2.92 3.435 5.127-4.399-2.921-3.435 1.708-1.463zm393.42-1.975l6.926 5.754 1.435-1.74 1.732 1.439-4.296 5.223 3.466 2.875 5.725-6.96 1.732 1.439-7.16 8.7-6.927-5.753 2.864-3.483-5.198-4.314-2.86 3.48-1.733-1.436 4.294-5.224zm.602 6.359l1.732 1.439-1.433 1.74-1.731-1.439 1.432-1.74zm-397.438-1.452l1.46 1.716-1.708 1.466-1.462-1.716 1.71-1.466zm-21.52-21.86l1.253 1.876-3.733 2.517 3.754 5.624 11.195-7.545 1.253 1.876-14.93 10.061-1.248-1.876 1.863-1.258-5.006-7.5 5.6-3.775zm438.038-10.975l7.544 4.907-4.887 7.584 1.888 1.225 2.442-3.79 1.884 1.228-2.442 3.79 1.888 1.226 4.886-7.58 1.885 1.228-6.106 9.477-9.431-6.136 2.444-3.793-3.775-2.454-1.219 1.897-1.887-1.228 2.441-3.79 5.66 3.681 1.222-1.896-5.66-3.682 1.223-1.894zM53.647 417.993l1.252 1.876-1.866 1.256-1.25-1.873 1.864-1.259zm444.964-8.59l1.888 1.228-1.22 1.894-1.887-1.229 1.22-1.893zm-453.58-24.045l2.053 4.02-5.998 3.091 1.027 2.008 5.995-3.092 1.028 2.008-7.996 4.125-4.105-8.035-1.998 1.03 2.05 4.019-2 1.03-2.048-4.02-2.002 1.033 4.105 8.035-1.999 1.03-5.129-10.044 9.995-5.154 2.052 4.016 4-2.06-1.028-2.01 1.998-1.03zm-6.917 11.182l1.027 2.008-2.001 1.032-1.025-2.01 1.999-1.03zm464.928-19.474l16.121 7.987-.994 2.026-14.108-6.99-2.981 6.075 8.062 3.995-.992 2.026-10.078-4.995 4.97-10.124zm6.073 8.044l2.016 1-.995 2.023-2.016-1 .995-2.023zm-4.033-2l2.016 1-.994 2.027-2.013-1 .991-2.026zM32.53 356.01l3.927 10.576-2.106.789-1.573-4.23-2.103.788 1.57 4.23-2.106.792-.782-2.116-10.528 3.947-.785-2.117 10.525-3.947-1.573-4.23 2.11-.789.781 2.117 2.106-.792-1.57-4.23 2.107-.789zm480.504-4.511l2.118.755-.752 2.129 12.706 4.53 1.5-4.256 2.119.752-3.757 10.643-2.118-.756 1.504-4.257-12.706-4.53-.752 2.128-2.115-.756 2.253-6.382zm8.335 10.16l2.115.753-.75 2.129-2.117-.756.752-2.125zm-496.476-.378l.785 2.117-2.103.788-.788-2.113 2.106-.792zm499.48-8.136l2.119.756-.752 2.129-2.118-.756.752-2.129zM24.327 327.56l2.67 10.965-2.181.536-1.07-4.387-2.181.54 1.067 4.386-2.181.536-.537-2.192-10.911 2.685-.533-2.194 10.911-2.686-1.07-4.386 2.181-.536.537 2.194 2.184-.538-1.07-4.387 2.184-.536zm-8.197 4.342l.534 2.191-2.184.54-.53-2.196 2.18-.535zm505.086-11.261l17.53 4.007-.501 2.2-15.336-3.504-1.495 6.603 8.763 2.005-.5 2.2-10.954-2.504 2.493-11.007zm7.768 6.406l2.187.5-.497 2.201-2.19-.5.5-2.2zm-4.383-1.002l2.193.5-.5 2.203-2.193-.502.5-2.201zM19.464 298.269l1.379 11.206-17.838 2.218-1.384-11.202 4.463-.554.276 2.237-2.232.28.83 6.722 13.377-1.664-.827-6.723-2.229.274-.279-2.237 4.464-.557zm-10.6 5.87l.276 2.24-2.229.28-.275-2.242 2.229-.277zm6.688-.83l.278 2.24-2.229.277-.278-2.243 2.229-.274zm516.408-11.343l2.232.238-.24 2.246 6.706.722.24-2.243 2.234.241-1.204 11.227-2.232-.241.24-2.246-2.235-.24-.24 2.242-2.235-.24.482-4.49 4.467.482.24-2.243-15.636-1.692.243-2.246 6.699.726.24-2.243zm-2.954 6.49l2.232.242-.24 2.246-2.231-.244.24-2.243zm-511.03-29.865l.18 11.29-2.247.036-.036-2.255-4.494.073.036 2.258-11.232.18L0 268.886l4.494-.072.036 2.255-2.247.04.108 6.773 6.74-.111-.038-2.258 6.74-.112-.107-6.77 2.25-.04zm-11.163 4.7l.036 2.26-2.244.034-.04-2.255 2.248-.04zm6.702-2.367l.039 2.258-2.247.037-.04-2.258 2.248-.037zm530.305-9.578l.18 11.29-8.985.141-.072-4.512-6.74.108.071 4.516-2.247.039-.108-6.774 8.988-.147-.036-2.255 2.244-.04.108 6.774 4.497-.072-.147-9.032 2.247-.036zm-11.085 9.213l.033 2.258-2.244.039-.036-2.261 2.247-.036zM2.07 237.019l4.47.485-.24 2.246-2.237-.24-.72 6.734 13.407 1.448.72-6.735-2.236-.24.24-2.246 4.473.481-1.204 11.227-17.874-1.933L2.07 237.02zm10.693 5.7l2.232.24-.24 2.246-2.235-.24.243-2.246zm-6.705-.723l2.235.24-.24 2.247-2.235-.244.24-2.243zm534.958-12.167l.276 2.24-6.69.831.273 2.24 4.464-.55.823 6.722-6.687.828-.554-4.48-2.229.274.552 4.483-6.69.83-1.379-11.205 6.693-.828.549 4.48 2.229-.274-.549-4.483 8.92-1.108zm-13.104 3.902l-2.232.277.827 6.723 2.232-.277-.827-6.723zm9.47 3.375l-2.232.277.279 2.24 2.229-.277-.276-2.24zM7.75 205.762l2.193.503-.497 2.2 2.187.5.5-2.2 2.193.5-.998 4.404-4.383-1.003-.497 2.201 15.336 3.508-.5 2.2-6.57-1.502-.5 2.204-2.19-.503.497-2.2-6.573-1.503-.498 2.2-2.193-.499 2.493-11.01zm10.459 4.709l2.19.5-.5 2.2-2.187-.502.497-2.198zm516.29-11.773l2.667 10.968-2.181.536-1.07-4.387-13.095 3.215.533 2.195-2.184.536-1.6-6.578 2.184-.54.534 2.196 13.098-3.216-1.07-4.39 2.185-.535zm-2.228 9.848l.53 2.191-2.181.54-.534-2.195 2.185-.536zm-2.137-8.773l.534 2.191-2.181.536-.537-2.194 2.184-.533zM20.52 179.003l2.115.753-.75 2.131 8.47 3.02.752-2.129-2.118-.755.752-2.129 4.233 1.511-3.004 8.511-2.119-.752.752-2.132-6.351-2.264-.752 2.129-2.118-.756.752-2.125-2.118-.756 1.504-4.257zm504.654-8.373l.785 2.116-10.525 3.947 1.573 4.23-2.11.79-.781-2.117-2.107.791 1.57 4.23-2.106.79-3.928-10.577 2.107-.789 1.573 4.23 2.103-.789-1.57-4.23 2.106-.792.782 2.117 10.528-3.947zM15.53 179.62l2.118.756-.751 2.128-2.119-.755.752-2.129zm504.897-2.39l.788 2.113-2.106.792-.785-2.117 2.103-.789zM29.806 146.236l2.017 1-1.99 4.049 12.092 5.994.995-2.026 2.016 1-2.98 6.072-2.017-.996.994-2.027-12.091-5.99-1.99 4.048-2.013-.999 4.967-10.125zm.057 10.098l2.017 1-.995 2.023-2.016-.997.994-2.026zm480.996-16.561l5.13 10.046-7.997 4.122-2.052-4.016-5.998 3.092 2.052 4.019-1.998 1.03-3.08-6.028 7.996-4.124-1.022-2.008 1.999-1.03 3.077 6.027 4-2.062-4.105-8.035 1.998-1.033zm-5.893 13.193l1.028 2.008-1.999 1.03-1.027-2.009 1.998-1.03zm-471.127-4.73l2.013.996-.991 2.026-2.017-1 .995-2.023zm14.552-25.033l1.881 1.229-3.66 5.687 1.887 1.225 4.883-7.58 7.544 4.907-6.106 9.477-1.887-1.228 4.886-7.581-3.772-2.454-2.441 3.79 1.887 1.229-1.225 1.894-1.885-1.229-1.222 1.897-5.656-3.682 4.886-7.58zm445.731-10.357l6.256 9.381-7.466 5.028-2.502-3.751-5.6 3.769 2.502 3.754-1.866 1.256-3.754-5.627 7.466-5.028-1.25-1.876 1.864-1.258 3.754 5.627 3.733-2.514-5.003-7.503 1.866-1.258zm-4.33 13.792l1.253 1.875-1.866 1.256-1.253-1.876 1.867-1.255zm-448.84-.204l1.888 1.228-1.223 1.894-1.884-1.226 1.22-1.896zm2.445-3.79l1.884 1.228-1.222 1.896-1.885-1.228 1.223-1.897zM64.94 93.49l3.463 2.875-1.432 1.743-1.735-1.439-4.29 5.22 10.39 8.632 4.293-5.22-1.731-1.44 1.432-1.74 3.463 2.876-7.157 8.703-13.857-11.51 7.16-8.7zm406.004-2.553l5.833 6.87-1.707 1.467-4.374-5.154-1.711 1.466 5.833 6.87-6.837 5.862-7.292-8.587 1.71-1.466 5.834 6.87 3.418-2.932-2.915-3.435-1.713 1.466-1.456-1.719 1.707-1.466-1.456-1.716 5.126-4.396zm-400.21 13.226l1.735 1.439-1.433 1.74-1.731-1.44 1.429-1.74zm-5.195-4.315l1.732 1.437-1.43 1.74-1.734-1.436 1.432-1.74zm411.742-8.408l1.459 1.716-1.71 1.466-1.457-1.716 1.708-1.466zM86.782 70.57l7.778 8.147-3.244 3.125 3.11 3.26 1.623-1.562 1.555 1.629-3.241 3.125-4.668-4.89-1.624 1.563 4.668 4.892-1.621 1.563-6.22-6.518 6.487-6.253-1.558-1.632-3.242 3.128-1.558-1.632 3.245-3.125-1.555-1.629-6.486 6.25-1.558-1.628 8.11-7.813zm387.585 17.437l1.456 1.716-1.708 1.466-1.459-1.716 1.71-1.466zm-22.522-22.408l8.233 7.683-6.118 6.618-6.585-6.145-1.528 1.653 4.94 4.61-4.586 4.964-3.296-3.074 1.531-1.656 1.648 1.539 1.525-1.656-3.29-3.074-1.53 1.656-1.645-1.536 6.114-6.62 6.585 6.148 3.062-3.31-4.943-4.608-1.525 1.652-1.648-1.535 3.056-3.309zM83.406 80.077l1.555 1.632-1.62 1.562-1.559-1.629 1.624-1.565zM112.05 55.28l1.357 1.797-1.789 1.364 5.432 7.198 1.792-1.367-1.358-1.797 1.786-1.364 2.72 3.598-7.163 5.458-1.357-1.8 1.791-1.364-4.077-5.398-1.786 1.364-1.363-1.798 1.792-1.363-1.357-1.8 3.58-2.728zm316.72-7.948l1.812 1.337-6.645 9.104 3.625 2.67-1.327 1.822-1.815-1.337-1.328 1.821 3.625 2.67-1.327 1.822-9.063-6.677 1.328-1.822 3.625 2.674 1.33-1.822-3.625-2.67 1.33-1.822 1.813 1.334 6.642-9.104zm-.363 8.135l1.813 1.333-1.33 1.822-1.81-1.334 1.327-1.821zm-320.863-2.421l1.357 1.8-1.789 1.364-1.357-1.8 1.789-1.364zm30.184-20.068l4.56 7.782-7.745 4.586 1.142 1.945 5.806-3.439 3.424 5.835-3.873 2.294-1.139-1.945 1.936-1.147-1.142-1.945-3.87 2.291 1.14 1.945-1.938 1.147-4.56-7.782 7.745-4.585-2.283-3.89-5.809 3.438 1.142 1.945-1.936 1.147-2.283-3.89 9.683-5.732zm263.936 2.598l3.91 2.231-1.111 1.963-1.954-1.114-4.437 7.852 1.95 1.117 1.112-1.966 1.953 1.117-2.22 3.926-7.813-4.46 1.108-1.965 1.954 1.117 3.331-5.889-1.956-1.117 1.109-1.963 1.956 1.114 1.108-1.963zM165.81 23.962l.908 2.065-2.055.91 3.628 8.264 2.058-.912-.907-2.066 2.055-.912 1.815 4.13-8.22 3.65-.911-2.069 2.058-.909-2.723-6.196-2.056.91-.91-2.066 2.058-.91-.908-2.068 4.11-1.821zm205.435-7.854l2.073.88-6.124 14.559 2.07.88.875-2.081 2.067.879.875-2.08 2.07.876 2.625-6.238-2.07-.88.874-2.08 4.14 1.758-4.373 10.4-2.067-.88-.875 2.08-2.074-.879-.874 2.08-6.208-2.634 6.996-16.64zm32.64 15.542l1.953 1.114-1.109 1.966-1.953-1.117 1.108-1.963zM189.417 10.253l3.307 10.787 4.293-1.328.663 2.159-2.149.665.663 2.156 4.296-1.328.659 2.159-10.738 3.32-.659-2.155 4.293-1.33-.659-2.16-4.296 1.331-.662-2.158 2.148-.666-3.304-10.79 2.145-.662zM372.76 24.105l2.07.879-.875 2.08-2.07-.879.875-2.08zM341.155 6.254l2.154.629-.626 2.168 8.635 2.516-1.882 6.506-2.157-.629 1.252-4.335-6.474-1.888-3.757 13.01-2.157-.63 5.012-17.347zM161.94 20.74l.907 2.065-2.058.912-.905-2.065 2.056-.912zm63.377-14.72l.407 2.221-6.633 1.223.408 2.221 8.84-1.631 1.622 8.884-11.05 2.038-.407-2.222 8.841-1.631-.809-4.441-4.422.816.408 2.222-2.211.406-.405-2.222-2.21.41-1.22-6.663 8.84-1.632zM310.096 0l2.22.37-1.109 6.684 2.214.37.74-4.456 6.651 1.114-1.111 6.684-4.434-.744-.369 2.228 4.434.74-1.108 6.685-11.085-1.861 1.108-6.68 4.434.746.369-2.228-4.431-.747L310.096 0zM195.697 15.398l.662 2.156-2.148.665-.662-2.159 2.148-.662zm114.396-1.663l-.366 2.227 6.648 1.114.369-2.228-6.651-1.113zm33.498.283l2.157.63-.626 2.167-2.157-.63.626-2.167zM316.007 5.57l-.369 2.225 2.214.373.375-2.228-2.22-.37zm-98.13-2.768l.405 2.222-2.208.406-.407-2.219 2.21-.409zm4.417-.816l.407 2.222-2.208.406-.407-2.221 2.208-.407z" fill="#00B5DD" fill-rule="evenodd"/></svg>