<svg xmlns="http://www.w3.org/2000/svg" xmlns:xlink="http://www.w3.org/1999/xlink" viewBox="0 0 100 110"><defs><filter id="a" width="116.7%" height="119.2%" x="-5.6%" y="-4.9%" filterUnits="objectBoundingBox"><feMorphology in="SourceAlpha" radius=".5" result="shadowSpreadOuter1"/><feOffset dx="3" dy="8" in="shadowSpreadOuter1" result="shadowOffsetOuter1"/><feGaussianBlur in="shadowOffsetOuter1" result="shadowBlurOuter1" stdDeviation="1.5"/><feColorMatrix in="shadowBlurOuter1" values="0 0 0 0 0 0 0 0 0 0 0 0 0 0 0 0 0 0 0.399011145 0"/></filter><path id="b" d="M90 0v88.258l-.224.073c-.144-.719-.277-1.183-.4-1.392-.186-.313-.584-1.08-1.196-2.302l.621 3.608-.388-.324-.233-.511c-.225-.212-.338-.042-.338.511v.324h-.636c-.167.062-.25.209-.25.44 0 .347-.326.244-.326.244s-.854.24-1.105.24h-1.341v.435c-.531 0-.797-.074-.797-.222 0-.147-.207-.218-.622-.212v.844c-.276.318-.503.55-.681.694-.268.217-.439 0-.439 0s-.834 0-.834.599l.002-.027-1.571.517h-.028l-.47-.49-.267-.598.001.598c0 .175-.238.327-.715.453l-.15.038h-1.318l-.773.423h-.232l-.628-.423v.666l-.25-.666h-.475c-.173 0-.277.14-.313.423l-.001 1.425-2.97.977c-.264.02-.436.006-.501-.002l-.028-.003h-.74l-.25-.21s-.462-.21-.462-.527c0-.211-.39-1.5-1.172-3.867-.033 2.659.04 3.988.216 3.988.177 0 .105.136-.216.407.184.137.138.291-.138.462-.414.255-.366.424-.366.424s-.331.374-.593.727l-4.329 1.426c-.15-.04-.319-.141-.509-.302-.609.187-1.032.396-1.27.627-.356.345-1.211.245-1.61.245h-.424l-.364-.245-.698.245h-.896l-.703-2.723v3.315c-.729.098-1.093.232-1.093.402 0 .256-.83.613-.83.613s-.537.237-1.04.237c-.335 0-.631.115-.888.345l-1.077.278-.346.22-.971.591h-.844v-.308l-.587.308v.564h-.602v.438l-.147.048-.732-.486h-.752l-.674 1.14-1.74-.57v-1.503h-.666l-1.504-.343s-.254-.43-.254-.66c0-.155-.106-.234-.319-.239l-1.396.238-1.318-.457-.779.219-.558.238-1.005-.89c-.525-.136-.788-.29-.788-.465 0-.174-.159-.286-.477-.336v-.651l-.715-2.67v2.928c0 .172-.232.415-.697.73v-.337s-.666-.128-1.102-.393c-.291-.177-.446-.177-.465 0l-.521-.258c-.141-.53-.282-.884-.423-1.063-.212-.269-.632-.32-.632-.32h-.652l-.455.32h-.888l-.385-.32-.482-.28h-1.432c-.251-1.88-.377-2.934-.377-3.16 0-.227-.306.305-.92 1.595-.404.216-.607.402-.607.558 0 .156-.29.156-.873 0l-1.096-.558h-.94l-1.6-.817-.33-.55.33-.229.253-.929-.584-2.619v2.619l-.338.708h-1.45l-.745.221-1.427-.22-3.407-1.084-.723-.557-.32-.533-1.156-.292h-.506l-.75-.51c.216-.376.324-.722.324-1.038 0-.316-.108-.366-.323-.151l-.34.625-.848.212-.856-.212-.697-.474H3.942v-.494H2.628l-1.15-.495-.716-.411-.762.71V0h90z"/></defs><g fill="none" fill-rule="evenodd"><use fill="#000" filter="url(#a)" xlink:href="#b"/><use fill="#000" xlink:href="#b"/><path fill="#FFF" d="M56.244 43.652l2.112.754c.035.051.077.12.124.184.448.618.752 1.312 1.076 1.998.081.173.28.502.28.502l.088.274.164.065.166.432.21.156.638.956s.496.73.703 1.116c.129.24.273.802.273.802l.31-.258-.044.334-.09.41-.08.76-.004.428-.21 1.077s-.292 1.236-.445 1.853c-.085.346-.206.683-.295 1.028-.11.433-.323 1.303-.323 1.303l-.04.497-.123.273-.285 1.047-.029.18-.06.164-.395 1.124s-.004.135-.004.205l-.206.115-.323-.165-1.14.116-.43.214c-.214.22-.366.414-.553.565-.68.547-1.276 1.16-1.708 1.929-.176.313-.405.596-.604.897-.243.368-.48.74-.672 1.036l-.136 1.005-.692.891-.215.32.004.217c-.12.302-.27.665-.384.901.1.186.104.38.04.581-.202.646-.407 1.29-.739 1.885l-.45-.243.298-.915-.072-.063-.255.568-.208-.094.39-1.115-.174-.01s-.283.712-.4.98c-.017.036-.082.052-.179.11l.313-.714-.204.013-.275.592-.23-.324-.387.135v-.43l.142-.174v-.332c.11-.226.313-.626.313-.626l.12-.593-.396-.138s-.041-.074-.062-.066l-.016.18-.141-.023-.112-.16c-.269.058-.38.123-.38.123l-.227 1.47-.119.691h-1.848c0-.103.006-.21-.001-.314-.029-.375-.062-.749-.096-1.15-.079.007-.153-.006-.201.023-.182.111-.383.21-.527.362-.231.242-.508.442-.71.708-.298.394-.723.695-.896 1.29l-.046-.379-.326-.051.162-.095v-.209l-.209.154c-.022-.193-.042-.378-.065-.564-.003-.024-.024-.047-.036-.07.025-.075.084-.156.071-.223-.06-.31-.01-.645-.208-.95-.067.017-.14.047-.213.051-.058.003-.118-.027-.177-.043-.09.135-.179.266-.27.404h-.717l-.595.358-.163.008-.142.246-.593.647-.143.065-.149.25-.163.203-.362.614h-.136l-.06-.052-.473-1.72a41.554 41.554 0 01-.261-1.04l-.122-.349-.174-.298s-.082-.141-.118-.229c-.107-.262-.177-.582-.177-.582l-.053-.187s-.365-.566-.617-.798a8.05 8.05 0 01-.39-.406l-.114-.293s-.627-.298-.837-.403c-.089-.044-.146-.164-.146-.164l-.265-.037-.747-.363-.227-.2-.21-.01-1.149-.737-.572-.367-.306-.359s-.428-1.277-.616-1.926c-.15-.52-.33-1.032-.49-1.55-.161-.517-.333-1.032-.502-1.545l-.51-1.635-.14-.28s-.319-1.045-.573-1.523c-.245-.46-.339-.982-.641-1.415-.048-.068-.124-.234-.124-.234l-.035-.209s-.104-.972-.092-1.46c.008-.327.252-.854.252-.854l.379-.322s.446-.344.681-.496c.346-.224.695-.441 1.098-.56.104-.031.31-.064.31-.064s.219.003.328-.001c.786-.027 1.572-.052 2.357-.086.171-.008.34-.061.511-.076.173-.016.346-.056.512-.07.55-.047 1.656-.085 1.656-.085l.822.137s.052.012.078.014c.39.028.778.052 1.167.085.226.02.45.056.675.08l.679.07.692.102-.541.525.158.079-.384.382.635-.101 1.45-.545.327-.023.279.158-.455.699-.606.661.725-.151.297.038c.167-.104.517-.287.517-.287s.256-.193.392-.28a18.082 18.082 0 001.728-1.265c.042-.034.933-.876 1.343-1.254.228-.211.456-.425.7-.617.209-.165.713-.486.713-.486l.247-.063 1.148-.617.407-.288.813-.901s-.163.563-.304.751c0 0 2.966-1.512 4.466-2.266zM44.167 61.615l-.084.004c-.129.23-.243.47-.392.685-.078.112-.19.342-.19.342l-.066.235-.137.353-.222.136-.231.153-.158.168s-.146.172-.192.27c-.127.274-.212.57-.302.859-.063.2-.158.614-.158.614l.289.289.198-.058s.181.118.254.15c.026.01.07.04.07.04l.116.076s.352.152.53.226c.291.121.585.235.9.361.046-.062.104-.105.105-.15.004-.15-.023-.465-.023-.465l.118.035.26.223.239.24.119.077c.04.002.083-.016.142-.047l-1.185-4.816zm2.232.155l-.222.42.09.251-.014.273-.01.296.014.344.392.951c.083.683.14 1.424.654 2.01l1.804-1.458.248-.949c-.188-.162-.363-.33-.553-.476a6.685 6.685 0 00-.38-.256l-.11-.174-1.114-.656-.584-.48s-.154-.07-.215-.096zm-18.83-6.664c.14.538.66 1.474.66 1.474l-.203-.041s.4 1.107.606 1.523c.172.346.364.683.54 1.028.072.141.12.295.186.439.24.518.486 1.032.723 1.551.194.423.376.851.569 1.275.07.155.167.3.23.458.15.38.453 1.206.453 1.206l-2.137-.934s-.364-.386-.564-.556c-.557-.475-.796-1.12-1.023-1.78-.134-.387-.294-.766-.418-1.157-.12-.377-.286-.737-.332-1.142-.02-.18-.04-.524-.04-.524l.134.048-.118-.344-.039-.1s-.208-.499-.161-.746c.043-.025.14.011.14.011l-.084-.368.878-1.32zM34.851 52l-.545.606.04.072-.08-.013-.46.553s-.111.368-.116.538c-.005.165-.05.488-.05.488l-.12.25s.018.212-.002.282a12.68 12.68 0 01-.126.421c-.027.086-.048.195-.018.273.145.384.192.793.374 1.171.27.56.465 1.156.699 1.733.24.59.457 1.19.79 1.739a.99.99 0 01.073.15l.113.322c.129.334.476.956.476.956l.226.318.472.01.32-.052.133-.044.214-.063c.07-.01.143-.012.216-.012h.493l.24-.186 1.174.106c.039-.068.07-.153.07-.153l.336.032.033.052.163.022s.34.048.513.022c.03-.06.063-.103.078-.153.111-.38.241-.756.322-1.143.065-.313.18-.611.244-.92.1-.493.218-.981.377-1.459.042-.124.055-.225.003-.346-.127-.292-.354-.885-.354-.885l-.344-.393-.257-.416-.181.014.063-.161s-.775-.604-.98-.803c-.441-.432-.852-.898-1.272-1.352-.277-.3-.616-.523-.928-.779-.494-.403-1.037-.634-1.673-.669-.247-.013-.749-.128-.749-.128zm19.375-.598c-.535-.017-1.108-.194-1.719-.066-.38.226-.768.491-1.089.843-.099.109-.173.241-.272.35-.395.431-1.195 1.286-1.195 1.286s-.098.096-.142.148c-.278.33-.532.683-.836.987-.5.502-.958 1.05-1.526 1.482-.06.045-.121.204-.121.204l-.154 1.024.356-.17s.07.445.116.652c.081.375.124.768.27 1.117.15.354.488 1.346.488 1.346l.113-.141-.035.323.108.276 2.878.537.212-.174.293.253.324.087.066-.25 2.99-1.742.225-.708.978-.755c.196-.373.362-.76.454-1.182.137-.634.333-1.252.433-1.899.06-.39.213-1.172.213-1.172l.083-.25.19-.185-.117-1.054-.111-.091c-.63-.147-1.218-.422-1.865-.532-.538-.091-1.047-.347-1.608-.544zm12.096-.26l.755.208s.747.161 1.072.39c.13.092.406.253.406.253s.354.359.464.605c.177.401.326.81.449 1.229a.476.476 0 010 .24c-.082.31-.15.958-.15.958s-.106.204-.165.322c.05.542-.212 1.026-.35 1.537-.183.68-.565 1.254-.965 1.828-.239.343-.531.638-.771.978-.1.142-.294.228-.458.313-.142.073-.68.493-.68.493l-.097-.078-.071.096-.402.308-.117-.028-.217.213-.35.127s-.621.204-.86.238c-.062.01-.118.054-.206.096l-.06-.33-.104.046c-.01-.02-.035-.045-.03-.062.133-.457.273-.91.402-1.368.104-.368.198-.74.29-1.112.073-.295.202-.89.202-.89l.172-.941.243-.96s.15-.618.25-.918c.097-.289.17-.586.272-.87.147-.403.28-1.236.28-1.236l.255-.89.276-.198s.037-.04.052-.063v-.088l-.264-.072.477-.374zM43.513 20c.194.498.405.999.585 1.511.336.963.665 1.927 1.054 2.87.197.477.343.974.519 1.459l.704 1.9c.233.633.46 1.269.692 1.903.108.299.22.596.33.895.15.41.29.823.452 1.228.143.357.267.722.395 1.082.15.424.335.835.467 1.266.053.176.127.346.189.51-.31.442-.57.885-.903 1.264-.321.365-.641.745-1.06 1.014-.08.05-.141.13-.208.197a8.84 8.84 0 01-1.047.894c-.227.168-.426.375-.645.555-.332.273-.666.544-1.008.805-.34.259-.69.504-1.037.755-.224.164-.462.3-.715.42-.249.12-.495.255-.746.373-.624.294-1.893.837-1.893.837l-.408.165-.74.168-.227.275c-.606.227-1.218.433-1.832.631-.5.161-1.015.28-1.524.415-.162.043-.325.08-.488.116l-.983.197c-.438.094-.88.185-1.323.26-.172.029-.352.004-.539.004-.136-.248-.454-.708-.454-.708l-.001-.268-.35-.255s-.762-.978-1.129-1.477c-.131-.179-.201-.4-.308-.598a8.385 8.385 0 00-1.058-1.513c-.131-.15-.226-.33-.345-.49-.183-.25-.372-.494-.56-.74a.285.285 0 00-.057-.058c-.492-.338-.74-.861-1.032-1.354-.394-.666-.747-1.356-1.155-2.016a32.735 32.735 0 00-1.146-1.69c-.24-.341-.52-.654-.789-.975-.377-.452-.76-.9-1.19-1.408.41.151.754.273 1.093.405.825.321 1.642.659 2.476.956.597.213 1.172.488 1.76.726.564.228 1.131.446 1.698.665.542.21 1.085.417 1.627.625l2.034.78c.013.004.03-.002.04.004.26.149.522.285.86.19.089-.156.17-.347.034-.566-.025-.04-.017-.106-.017-.16-.004-.954-.135-1.904-.087-2.861.02-.398-.003-.797.005-1.195v-.308a4.92 4.92 0 00-.163-1.212c-.007-.026-.001-.055-.003-.082-.027-.514-.04-1.03-.086-1.543-.04-.438-.098-.877-.189-1.307-.051-.245-.082-.472-.002-.71.021-.063.023-.132.03-.198.028-.223.055-.447.08-.661.172.175.323.342.487.495.177.165.382.303.547.48.19.204.45.32.609.579.135.22.39.368.598.54.405.332.822.65 1.222.988.325.276.634.573.947.863.399.37.794.745 1.194 1.113.068.063.157.1.232.156.485.359.991.687 1.438 1.1.313.29.68.521 1.014.79.138.11.253.25.382.373.065.063.138.117.238.2.022-.089.043-.137.043-.184a7.11 7.11 0 01.162-1.52c.012-.053 0-.11.004-.165.027-.418.028-.84.09-1.254.078-.533.153-1.063.16-1.603.003-.171.056-.341.077-.513.019-.159-.036-.326.076-.474.027-.035.004-.107.007-.162.027-.418.03-.84.089-1.254.079-.56.166-1.117.158-1.685.168-.324-.004-.702.163-1.026-.038-.541.086-1.09-.078-1.626-.015-.048.003-.106.007-.178z"/></g></svg>